<svg width="21" height="21" viewBox="0 0 21 21" fill="none" xmlns="http://www.w3.org/2000/svg">
<path d="M15.9805 10.1312H10.9805V5.13118C10.9805 4.91017 10.8927 4.69821 10.7364 4.54193C10.5801 4.38565 10.3681 4.29785 10.1471 4.29785C9.92612 4.29785 9.71416 4.38565 9.55788 4.54193C9.4016 4.69821 9.3138 4.91017 9.3138 5.13118V10.1312H4.3138C4.09279 10.1312 3.88083 10.219 3.72455 10.3753C3.56827 10.5315 3.48047 10.7435 3.48047 10.9645C3.48047 11.1855 3.56827 11.3975 3.72455 11.5538C3.88083 11.7101 4.09279 11.7979 4.3138 11.7979H9.3138V16.7979C9.3138 17.0189 9.4016 17.2308 9.55788 17.3871C9.71416 17.5434 9.92612 17.6312 10.1471 17.6312C10.3681 17.6312 10.5801 17.5434 10.7364 17.3871C10.8927 17.2308 10.9805 17.0189 10.9805 16.7979V11.7979H15.9805C16.2015 11.7979 16.4134 11.7101 16.5697 11.5538C16.726 11.3975 16.8138 11.1855 16.8138 10.9645C16.8138 10.7435 16.726 10.5315 16.5697 10.3753C16.4134 10.219 16.2015 10.1312 15.9805 10.1312Z" fill="black"/>
</svg>
