<svg width="59" height="53" viewBox="0 0 59 53" fill="none" xmlns="http://www.w3.org/2000/svg">
<path d="M53.7364 32.534C56.2546 32.7083 58.4796 31.034 58.709 28.795C58.9384 26.556 57.0862 24.5989 54.568 24.4265C54.4376 24.4177 54.3083 24.4163 54.1796 24.4173C54.0625 23.2753 53.8435 22.142 53.5243 21.0264C53.6441 20.9863 53.7633 20.9445 53.8808 20.8948C56.1752 19.9264 57.1757 17.4979 56.1192 15.4719C55.0627 13.4458 52.3408 12.5877 50.0465 13.5566C49.9262 13.6072 49.812 13.6642 49.6995 13.7226C48.9555 12.7977 48.1258 11.9214 47.2177 11.1015C47.3016 11.0123 47.3856 10.9217 47.4595 10.8256C48.9144 8.97332 48.4242 6.44186 46.3593 5.16947C44.2944 3.89707 41.4393 4.37025 39.9827 6.22251C39.9077 6.3177 39.8417 6.41519 39.7773 6.5136C38.6045 6.04866 37.386 5.66578 36.1349 5.36904C36.1573 5.25592 36.1774 5.14233 36.1909 5.02645C36.4209 2.78746 36.9183 0.259223 34.3974 0.117131C28.5686 -0.21074 27.3067 2.15655 27.0773 4.3937C27.0655 4.50958 27.0622 4.62363 27.0616 4.73859C25.7677 4.85914 24.4884 5.06912 23.2373 5.36628C23.1937 5.26051 23.1484 5.15521 23.0941 5.05129C22.0348 3.0252 22.2262 1.67325 19.8177 2.43246C14.5659 4.08791 13.7265 6.53337 14.7858 8.55991C14.8417 8.66568 14.9038 8.76638 14.9676 8.86571C13.906 9.54866 12.9099 10.2978 11.9884 11.1065C11.8893 11.0334 11.788 10.9617 11.68 10.895C9.61567 9.62492 6.76006 10.0963 5.30343 11.9485C3.8468 13.8008 4.33868 16.3322 6.40359 17.6046C6.50935 17.6699 6.61848 17.7274 6.7276 17.7831C6.1863 18.8391 5.73986 19.9263 5.39185 21.036C5.26482 21.0176 5.13723 21.0011 5.00684 20.99C2.48866 20.8162 0.264268 22.49 0.0348341 24.7295C-0.1946 26.9689 1.65767 28.9251 4.17585 29.098C4.30623 29.1072 4.4355 29.1082 4.56421 29.1077C4.68135 30.2495 4.90036 31.3827 5.21949 32.4981C5.09974 32.5381 4.98055 32.58 4.86303 32.6297C2.56869 33.5985 1.56813 36.0265 2.62465 38.0531C3.68117 40.0796 6.40303 40.9368 8.69737 39.9679C8.81712 39.9173 8.93185 39.8603 9.04433 39.8019C9.78816 40.7267 10.6177 41.603 11.5256 42.423C11.4422 42.5122 11.3605 42.6028 11.2838 42.6989C9.82889 44.5512 10.3196 47.0826 12.3846 48.355C14.4495 49.6274 18.919 49.0448 20.3756 47.1921C20.4506 47.0969 18.9022 47.1088 18.9665 47.0109C20.1396 47.4754 21.358 47.8583 22.6089 48.1555C22.5865 48.2681 22.5664 48.3817 22.553 48.4976C22.3235 50.737 24.1758 52.6937 26.694 52.8661C29.2122 53.0386 31.4371 51.3666 31.6665 49.1271C31.6783 49.0112 31.6811 48.8972 31.6822 48.7818C32.9762 48.6612 34.2555 48.4512 35.5065 48.1541C35.5496 48.2598 35.5949 48.3651 35.6492 48.4691C36.7091 50.4956 39.4281 51.3528 41.7219 50.3843C44.0157 49.4159 45.0174 46.987 43.9575 44.9609C43.9015 44.8547 43.84 44.754 43.7756 44.6546C44.8376 43.972 45.8338 43.223 46.7555 42.4143C46.8545 42.4869 46.9558 42.5587 47.0638 42.6253C49.1282 43.8959 51.9832 43.4241 53.4432 41.5718C54.9032 39.7196 54.408 37.1881 52.343 35.9157C52.2373 35.8509 52.1282 35.7934 52.0185 35.7373C52.56 34.6813 53.0067 33.594 53.3548 32.4843C53.479 32.5083 53.606 32.5253 53.7364 32.534ZM27.8607 41.4858C18.7231 40.8531 11.9912 33.7494 12.8244 25.6211C13.6576 17.4929 21.741 11.4119 30.8786 12.0451C40.0163 12.6783 46.7482 19.7811 45.915 27.9098C45.0817 36.0385 36.9984 42.1181 27.8607 41.4858Z" fill="#BFC6D1"/>
</svg>
