<svg width="547" height="225" viewBox="0 0 547 225" fill="none" xmlns="http://www.w3.org/2000/svg">
<path d="M-33.1976 144.491L-33.019 144.319C-27.858 148.054 -19.459 148.613 -8.7318 145.94C1.24128 143.352 11.8086 138.746 22.4681 132.341C33.4392 125.757 44.1558 117.891 54.5189 110.284C63.4074 103.76 72.5997 97.0128 81.9307 91.088C134.713 57.5754 193.657 52.563 216.121 79.6779C217.171 80.9441 218.18 82.303 219.157 83.6174C222.984 88.7716 226.943 94.1008 234.413 95.4854C241.252 96.7529 250.428 94.5346 260.947 89.069C270.396 84.1313 279.915 77.2622 288.839 68.9413C297.812 60.5201 305.827 51.2992 313.578 42.3829C320.147 34.8257 326.939 27.0119 334.299 19.6985C346.026 8.04701 359.809 -2.77627 374.156 -11.6024C388.821 -20.5744 403.404 -27.25 417.296 -31.3506C431.412 -35.4703 444.649 -36.9978 456.491 -35.8734C468.261 -34.7401 478.232 -30.9076 485.327 -24.7911L485.143 -24.6237C478.063 -30.7284 468.112 -34.5528 456.365 -35.6841C444.547 -36.8057 431.336 -35.2813 417.25 -31.1707C403.385 -27.0783 388.831 -20.4158 374.196 -11.4614C359.877 -2.6531 346.123 8.14844 334.419 19.7764C327.07 27.078 320.282 34.8868 313.719 42.4383C305.961 51.3627 297.94 60.5909 288.95 69.0276C279.995 77.3774 270.443 84.2702 260.961 89.2246C250.385 94.7191 241.158 96.9493 234.276 95.673C226.767 94.2813 222.799 88.9387 218.961 83.7723C217.986 82.4584 216.976 81.1002 215.928 79.8357C193.504 52.7691 134.664 57.772 81.9764 91.2251C72.6569 97.1423 63.4714 103.884 54.5888 110.405C44.2166 118.018 33.4924 125.889 22.5043 132.484C11.8123 138.908 1.21306 143.527 -8.79014 146.123C-19.568 148.81 -28.0077 148.245 -33.1976 144.491Z" fill="url(#paint0_linear_273_2438)" fill-opacity="0.2"/>
<path d="M-32.9021 143.158L-32.6583 142.904C-27.4732 145.803 -18.9941 145.785 -8.13826 142.853C1.90205 140.041 12.4124 135.578 23.0543 129.61C24.3583 128.88 25.7147 128.105 27.0872 127.304C36.0727 122.061 44.7012 116.225 53.046 110.581C61.8292 104.642 70.9129 98.4981 80.1552 93.2492C94.2196 85.2612 109.094 79.6929 121.788 75.2998C137.894 69.7255 150.447 66.3583 161.291 64.7023C177.733 62.1966 192.233 63.1208 203.224 67.3741C207.85 69.0983 211.987 71.5142 215.578 74.5882C217.438 76.2071 219.116 78.0696 220.893 80.0411C222.496 81.82 224.154 83.6605 225.946 85.2871C228.344 87.6091 231.282 89.2964 234.684 90.3046C241.015 92.0184 249.024 90.8192 258.488 86.7396C267.346 82.9015 276.462 77.0874 285.171 69.721C293.383 62.7112 300.783 54.9507 307.94 47.4454C314.241 40.8374 320.757 34.004 327.883 27.6068C338.819 17.7939 351.679 8.73064 365.075 1.39664C379.867 -6.62388 394.411 -12.3782 408.173 -15.6551C422.242 -18.9664 435.439 -19.9688 447.374 -18.6327C459.332 -17.3037 469.792 -13.6155 477.622 -7.96701L477.366 -7.72051C469.554 -13.3553 459.12 -17.0345 447.191 -18.3607C435.285 -19.6936 422.12 -18.6937 408.086 -15.3905C394.362 -12.1228 379.858 -6.38429 365.106 1.61464C351.751 8.92627 338.932 17.9605 328.033 27.7406C320.925 34.1212 314.417 40.9455 308.124 47.5454C300.957 55.0621 293.545 62.8343 285.308 69.8652C276.549 77.2734 267.382 83.1203 258.473 86.9803C249.068 91.0339 240.768 92.2758 234.472 90.5716C231.05 89.5579 228.093 87.8607 225.68 85.5249C223.884 83.8943 222.224 82.0523 220.619 80.2711C218.844 78.3017 217.168 76.4421 215.313 74.8282C211.733 71.7636 207.609 69.3551 202.997 67.6361C192.037 63.3941 177.575 62.473 161.175 64.9728C150.354 66.6249 137.823 69.9863 121.74 75.5528C109.067 79.9387 94.2208 85.4959 80.1939 93.463C70.9728 98.6996 61.8999 104.836 53.1261 110.769C44.7729 116.418 36.1358 122.26 27.1331 127.514C25.7573 128.316 24.3972 129.093 23.0914 129.824C12.4108 135.814 1.86225 140.292 -8.21457 143.115C-19.1381 146.065 -27.6757 146.081 -32.9021 143.158Z" fill="url(#paint1_linear_273_2438)" fill-opacity="0.2"/>
<path d="M-32.5929 141.828L-32.2947 141.487C-20.7243 146.101 4.19323 136.965 23.6539 126.876C24.9417 126.209 26.2809 125.503 27.6362 124.779C35.9564 120.326 43.7569 115.543 51.301 110.918C60.4882 105.284 69.1664 99.9633 78.3972 95.4063C88.2286 90.553 98.8342 86.979 110.063 83.1961C113.154 82.1546 116.349 81.078 119.56 79.9634C122.172 79.0561 124.758 78.1501 127.318 77.2453C138.831 73.1949 149.705 69.3693 159.634 66.9654C175.917 63.0313 190.513 62.2183 201.844 64.6154C206.718 65.5257 211.14 67.1617 215.037 69.4966C217.981 71.3071 220.683 73.9655 223.297 76.5363C224.322 77.5442 225.382 78.5867 226.446 79.5705C229.441 82.3331 232.068 84.0463 234.966 85.1255C240.949 87.3039 248.56 86.8923 256.97 83.9356C264.95 81.1828 273.325 76.5975 281.523 70.4928C289.016 64.8362 295.834 58.4729 302.429 52.3195C308.428 46.7204 314.632 40.9311 321.488 35.5064C331.929 27.2504 344.233 19.723 357.068 13.7376C370.831 7.306 385.352 2.56974 399.063 0.0403975C426.489 -4.9968 452.316 -1.78355 469.922 8.85686L469.599 9.18532C452.038 -1.42791 426.278 -4.63318 398.925 0.390688C385.258 2.91177 370.784 7.63241 357.068 14.0427C344.285 20.0034 332.035 27.4977 321.643 35.7143C314.813 41.1181 308.623 46.8955 302.635 52.4833C296.025 58.6514 289.191 65.0292 281.662 70.7132C273.397 76.8678 264.953 81.4903 256.907 84.2653C248.409 87.2535 240.718 87.6696 234.672 85.4681C231.752 84.3807 229.108 82.6574 226.098 79.8798C225.031 78.8951 223.971 77.8521 222.945 76.843C220.337 74.2784 217.642 71.6254 214.712 69.8241C210.833 67.5001 206.432 65.8722 201.58 64.9668C190.292 62.5785 175.749 63.3888 159.52 67.3105C149.619 69.7069 138.757 73.5288 127.259 77.5743C124.699 78.4748 122.112 79.381 119.497 80.2929C116.284 81.4087 113.088 82.4856 109.996 83.5272C98.7878 87.304 88.2016 90.8707 78.41 95.7046C69.2102 100.247 60.5469 105.558 51.375 111.182C43.8213 115.813 36.0115 120.602 27.6706 125.066C26.3131 125.792 24.9708 126.498 23.6808 127.168C4.12508 137.306 -20.927 146.48 -32.5929 141.828Z" fill="url(#paint2_linear_273_2438)" fill-opacity="0.2"/>
<path d="M-32.2768 140.499L-31.9433 140.068C-17.9467 143.458 14.6113 128.734 24.2565 124.14C25.583 123.508 26.894 122.879 28.1893 122.25C35.6258 118.641 42.4671 114.918 49.0822 111.317C58.4516 106.218 67.3005 101.402 76.6472 97.5593C83.3359 94.81 90.5556 92.7332 98.1993 90.5346C104.315 88.7753 110.639 86.9566 117.328 84.6261C124.522 82.1201 131.448 79.3668 138.145 76.7043C145.145 73.9204 151.758 71.2913 157.961 69.2337C173.976 63.93 188.667 61.3796 200.446 61.8571C204.877 62.0372 209.612 62.3817 214.485 64.4033C218.789 66.1871 222.56 69.7318 226.206 73.1594L226.944 73.8531C229.371 76.2929 232.148 78.3317 235.247 79.9486C240.664 82.6 247.611 83.0051 255.463 81.1274C262.587 79.4271 270.219 76.0673 277.889 71.2538C284.756 66.884 290.784 62.052 297.167 56.9357C302.791 52.4278 308.606 47.7664 315.106 43.3946C325.06 36.7103 336.804 30.7222 349.071 26.0756C362.375 21.0144 376.513 17.4387 389.956 15.7363C416.731 12.373 443.068 15.9967 462.217 25.6793L461.832 26.0914C442.731 16.4336 416.46 12.8184 389.756 16.1729C376.358 17.8693 362.27 21.4324 349.014 26.4752C336.808 31.098 325.127 37.054 315.233 43.6982C308.769 48.046 302.97 52.6938 297.363 57.1883C290.957 62.3226 284.908 67.1716 277.995 71.5709C270.24 76.4372 262.525 79.8341 255.323 81.5533C247.378 83.4541 240.348 83.0448 234.867 80.3626C231.749 78.7377 228.955 76.6878 226.513 74.2341L225.775 73.5404C222.141 70.1244 218.384 66.5918 214.114 64.8232C209.282 62.8178 204.578 62.4756 200.174 62.2974C188.452 61.8214 173.824 64.3623 157.875 69.6432C151.692 71.6947 145.09 74.3198 138.1 77.0989C131.395 79.7648 124.462 82.5218 117.253 85.0321C110.545 87.369 104.212 89.191 98.087 90.9528C90.4628 93.1455 83.2616 95.2172 76.6107 97.9507C67.3074 101.776 58.4784 106.581 49.1309 111.669C42.5059 115.274 35.6563 119.002 28.2005 122.62C26.9035 123.249 25.5904 123.88 24.2613 124.514C14.5705 129.129 -18.1468 143.922 -32.2768 140.499Z" fill="url(#paint3_linear_273_2438)" fill-opacity="0.2"/>
<path d="M-31.9518 139.171L-31.6089 138.649C-22.4413 139.467 -3.44305 133.665 24.8606 121.403L28.7458 119.72C34.9042 117.048 40.5241 114.406 45.9597 111.85C55.8576 107.196 65.2066 102.801 74.9074 99.7095C79.7977 98.1511 85.0488 97.0068 90.6097 95.7946C97.9164 94.2025 106.198 92.3975 115.094 89.2896C124.915 85.8586 134.055 81.6241 142.895 77.5289C147.593 75.3526 152.031 73.2965 156.273 71.507C172.024 64.8776 186.808 60.5886 199.026 59.1034C203.488 58.5615 208.545 57.9471 213.921 59.3098C218.996 60.5923 223.417 64.31 227.439 68.1363C229.929 70.5058 232.504 72.9561 235.529 74.7739C240.442 77.8556 246.732 79.0657 253.968 78.3211C260.279 77.615 267.165 75.4732 274.278 72.0036C280.598 68.8661 286.217 65.2221 292.166 61.3638C297.684 57.6908 303.221 54.321 308.743 51.2739C318.214 46.1809 329.396 41.7332 341.082 38.4113C354.909 34.5567 368.227 32.2194 380.85 31.4319C406.894 29.7181 433.741 33.753 454.506 42.5001L454.064 42.9989C433.345 34.2707 406.561 30.2448 380.579 31.954C367.999 32.739 354.727 35.0681 340.947 38.9085C329.321 42.2136 318.204 46.6341 308.797 51.6934C303.301 54.7263 297.792 58.0802 292.3 61.7355C286.323 65.6124 280.677 69.274 274.3 72.4396C267.093 75.9549 260.117 78.1249 253.722 78.8408C246.397 79.5968 240.029 78.374 235.055 75.2564C232.009 73.4247 229.424 70.9662 226.925 68.5891C222.927 64.7842 218.536 61.0894 213.522 59.8216C208.217 58.4768 203.206 59.0858 198.785 59.6234C186.631 61.0997 171.919 65.3695 156.238 71.9695C152.012 73.7515 147.582 75.804 142.891 77.9775C134.03 82.0823 124.868 86.3266 115.004 89.7723C106.063 92.8963 97.7566 94.7069 90.4285 96.3039C84.8859 97.5117 79.6504 98.653 74.7965 100.199C65.1513 103.273 55.8303 107.656 45.9616 112.296C40.5197 114.854 34.8926 117.5 28.7199 120.177L24.8339 121.861C-3.58492 134.173 -22.6912 139.997 -31.9518 139.171Z" fill="url(#paint4_linear_273_2438)" fill-opacity="0.2"/>
<path d="M-31.6024 137.838L-31.2848 137.233C-20.3793 136.575 2.54256 127.62 20.9603 120.425L25.4762 118.663C26.7776 118.157 28.057 117.664 29.3145 117.186C33.386 115.637 37.1682 114.148 40.8266 112.707C52.524 108.102 62.6266 104.125 73.187 101.859C76.836 101.076 80.7218 100.555 84.8358 100.004C93.0025 98.9089 102.259 97.668 112.865 93.9529C124.551 89.8588 135.571 83.9335 145.294 78.7058C148.54 76.9603 151.606 75.3121 154.58 73.7893C169.987 65.915 184.858 59.888 197.588 56.3602L197.897 56.2743C202.743 54.9303 207.755 53.5409 213.356 54.2163C218.027 54.7764 222.798 57.4599 227.94 62.42C228.466 62.9277 228.985 63.4343 229.499 63.9399C231.603 66.0018 233.59 67.9497 235.819 69.6018C240.737 73.2486 246.347 75.239 252.491 75.5172C258.041 75.7787 264.19 74.8439 270.703 72.7484C276.655 70.8059 282.033 68.2796 287.727 65.6056C292.301 63.457 297.031 61.2346 302.412 59.1462C311.424 55.6635 322.038 52.7593 333.109 50.7473C346.502 48.3621 359.418 47.1523 371.754 47.1279C396.896 47.0245 424.249 51.4682 446.799 59.3214L446.306 59.9057C423.796 52.0672 396.496 47.631 371.404 47.7343C359.105 47.7587 346.227 48.9648 332.874 51.3428C321.854 53.345 311.297 56.2331 302.342 59.6935C296.997 61.7686 292.285 63.982 287.728 66.1224C282.003 68.8116 276.594 71.3521 270.581 73.3144C263.976 75.4398 257.742 76.3883 252.115 76.1238C245.892 75.8412 240.217 73.8297 235.248 70.1455C233.005 68.4828 231.012 66.5294 228.901 64.4622C228.387 63.9575 227.868 63.4513 227.343 62.9433C222.248 58.0275 217.538 55.3701 212.945 54.819C207.455 54.1575 202.513 55.5282 197.734 56.8532L197.425 56.9384C184.76 60.4493 169.958 66.448 154.618 74.288C151.656 75.805 148.596 77.4499 145.356 79.1923C135.594 84.4405 124.53 90.3894 112.763 94.5121C102.07 98.2582 92.7702 99.5044 84.5655 100.604C80.4666 101.153 76.5944 101.673 72.9746 102.45C62.4857 104.701 52.4186 108.664 40.7621 113.253C37.1003 114.695 33.315 116.185 29.2376 117.736C27.9829 118.212 26.7062 118.704 25.4075 119.21L20.8932 120.972C2.41602 128.191 -20.5794 137.174 -31.6024 137.838Z" fill="url(#paint5_linear_273_2438)" fill-opacity="0.2"/>
<path d="M-30.9888 135.825C-23.2319 134.225 -9.85248 129.204 4.31222 123.888C11.7131 121.111 19.3665 118.239 26.0907 115.922C27.3807 115.477 28.6453 115.054 29.8845 114.652L29.9906 114.617C47.3563 108.965 58.8289 105.232 71.471 104.01C74.1544 103.751 76.9783 103.649 79.9679 103.541C88.6622 103.227 98.5165 102.871 110.63 98.6157C123.814 93.9848 135.887 86.533 146.537 79.9592C148.741 78.5985 150.823 77.3135 152.87 76.0804C167.381 67.3155 181.86 59.8004 196.122 53.6324L196.767 53.3564C201.694 51.2496 206.788 49.0705 212.776 49.1247C219.37 49.1825 224.93 53.2786 228.434 56.7039C229.552 57.7971 230.624 58.9185 231.66 60.0019C233.164 61.5753 234.584 63.0608 236.104 64.4323C240.835 68.7043 245.713 71.4165 251.016 72.7234C255.874 73.9151 261.297 74.1755 267.149 73.498C273.115 72.8124 278.643 71.3745 284.496 69.8522C288.119 68.9095 291.865 67.9352 296.098 67.0206C306.072 64.9905 315.771 63.6764 325.14 63.0856C338.047 62.1796 350.568 62.0925 362.655 62.8247C386.797 64.2607 413.939 68.9892 439.082 76.1419L438.544 76.8133C413.431 69.6707 386.326 64.9467 362.22 63.5135C350.159 62.783 337.666 62.8697 324.786 63.7734C315.453 64.3619 305.792 65.6706 295.857 67.6925C291.645 68.6023 287.908 69.5746 284.294 70.514C278.41 72.0447 272.852 73.4906 266.828 74.1833C260.902 74.8691 255.411 74.6053 250.492 73.3986C245.13 72.0774 240.204 69.3414 235.432 65.0338C233.905 63.6552 232.481 62.1657 230.974 60.5889C229.939 59.5065 228.869 58.3875 227.754 57.2977C224.295 53.915 218.818 49.8707 212.37 49.8149C206.55 49.7619 201.557 51.8977 196.727 53.9636L196.081 54.2396C181.877 60.3832 167.455 67.8683 153.003 76.5983C150.964 77.8269 148.885 79.11 146.685 80.468C135.972 87.0798 123.831 94.5744 110.515 99.2513C98.2618 103.555 88.3421 103.914 79.5906 104.23C76.6111 104.338 73.7974 104.44 71.136 104.697C58.587 105.909 47.1546 109.63 29.85 115.262L29.7436 115.297C28.5114 115.696 27.2532 116.117 25.9691 116.561C19.259 118.872 11.6142 121.741 4.22003 124.515C-9.98596 129.847 -23.4033 134.882 -31.238 136.499L-30.9888 135.825Z" fill="url(#paint6_linear_273_2438)" fill-opacity="0.2"/>
<path d="M-30.7136 134.432C-26.4322 132.937 -20.4349 130.575 -13.4917 127.842C-1.05023 122.944 14.4336 116.848 26.715 113.181C28.0141 112.792 29.2758 112.434 30.4652 112.117C48.1877 107.358 58.8401 105.745 69.7678 106.166C71.6267 106.238 73.5559 106.39 75.599 106.549C84.1691 107.22 94.8349 108.056 108.4 103.279C122.878 98.1806 135.758 89.1569 147.123 81.1954C148.497 80.2331 149.842 79.2909 151.157 78.3788C165.607 68.3761 180.135 59.2035 194.644 50.9217L195.362 50.5108C200.451 47.6002 205.715 44.59 212.191 44.0369C219.975 43.3692 226.021 48.1053 228.933 50.9881C230.668 52.7049 232.228 54.5091 233.738 56.254C234.627 57.2818 235.503 58.2943 236.393 59.2649C240.979 64.2635 245.282 67.7551 249.549 69.9391C253.772 72.0667 258.481 73.5158 263.612 74.2662C270.597 75.3457 276.88 75.1986 284.833 75.0123C286.416 74.9749 288.066 74.9361 289.801 74.9056C298.641 74.7723 307.851 74.9481 317.179 75.428C329.365 76.0099 341.607 77.0513 353.564 78.5231C375.209 81.2292 400.658 85.9522 431.367 92.962L430.788 93.7208C400.096 86.7151 374.663 81.9954 353.037 79.2916C341.096 77.8214 328.869 76.7815 316.697 76.2001C307.383 75.7209 298.187 75.5453 289.364 75.6787C287.631 75.7095 285.983 75.748 284.401 75.7852C276.415 75.972 270.107 76.1195 263.068 75.0326C257.888 74.2743 253.134 72.811 248.871 70.6631C244.566 68.4604 240.232 64.9454 235.62 59.9178C234.728 58.945 233.85 57.9303 232.959 56.8993C231.453 55.1599 229.896 53.3601 228.17 51.651C225.307 48.8163 219.374 44.158 211.806 44.8078C205.567 45.3403 200.438 48.2738 195.478 51.1106L194.758 51.5218C180.292 59.7797 165.807 68.9252 151.4 78.8979C150.088 79.808 148.745 80.7484 147.374 81.7094C135.921 89.7324 122.941 98.8258 108.271 103.991C94.5023 108.84 83.7437 107.997 75.0992 107.32C73.0626 107.161 71.1389 107.01 69.2919 106.939C58.4513 106.521 47.8698 108.124 30.247 112.857C29.0686 113.172 27.8183 113.526 26.5299 113.911C14.2987 117.565 -1.15629 123.649 -13.5748 128.538C-20.5316 131.276 -26.5396 133.641 -30.8461 135.146L-30.7136 134.432Z" fill="url(#paint7_linear_273_2438)" fill-opacity="0.2"/>
<path d="M-30.4605 133.056C-17.8334 126.883 8.5502 115.172 27.3422 110.439C28.6282 110.115 29.8745 109.827 31.0482 109.583C48.4968 105.925 58.1486 106.392 68.0665 108.331C69.1748 108.547 70.3184 108.793 71.5029 109.048C80.2378 110.923 91.1073 113.258 106.167 107.943C121.814 102.42 135.938 91.3062 147.286 82.377L149.435 80.6868C162.888 70.1491 176.779 59.8348 193.154 48.2272L193.79 47.7758C198.838 44.1907 204.56 40.1263 211.597 38.9532C217.875 37.9045 224.375 40.2075 229.43 45.2726C231.815 47.6612 233.779 50.2617 235.678 52.7767L236.682 54.1018C240.929 59.6683 244.492 64.0204 248.078 67.1671C251.691 70.2713 255.696 72.9082 260.064 75.0592C266.835 78.5122 273.187 80.6125 283.502 82.8083C290.368 84.2913 298.773 85.8452 308.506 87.6449L316.215 89.0363C324.762 90.5716 334.449 92.3119 344.472 94.2235C354.108 96.0808 363.964 98.0785 374.399 100.193C390.679 103.492 407.513 106.905 423.648 109.783L423.032 110.63C406.891 107.75 390.053 104.337 373.77 101.037C363.337 98.9223 353.483 96.925 343.849 95.0683C333.83 93.1581 324.144 91.4174 315.599 89.8824L307.887 88.4902C298.15 86.6902 289.741 85.1357 282.868 83.6509C272.507 81.4449 266.122 79.3342 259.313 75.8608C254.916 73.6955 250.886 71.041 247.249 67.916C243.641 64.7508 240.065 60.3839 235.805 54.8011L234.8 53.4742C232.908 50.9686 230.952 48.378 228.583 46.0061C223.633 41.0462 217.315 38.7831 211.248 39.7973C204.526 40.9175 199.215 44.6895 194.078 48.3376L193.441 48.7898C177.092 60.3795 163.225 70.6752 149.8 81.1922L147.653 82.8797C136.195 91.8957 121.936 103.116 106.025 108.732C90.6844 114.146 79.697 111.787 70.8685 109.89C69.6874 109.637 68.547 109.392 67.4423 109.176C57.6115 107.254 48.0431 106.791 30.742 110.418C29.5841 110.66 28.3529 110.944 27.0829 111.264C8.40099 115.969 -17.8612 127.628 -30.4343 133.774L-30.4605 133.056Z" fill="url(#paint8_linear_273_2438)" fill-opacity="0.2"/>
<path d="M-30.2212 131.697C-18.1596 124.153 8.77454 111.615 27.9727 107.697C29.2362 107.439 30.4687 107.221 31.637 107.049C48.667 104.517 57.7831 107.238 66.3673 110.502L67.5636 110.959C75.8693 114.146 87.2455 118.509 103.933 112.606C120.68 106.681 135.374 93.8079 147.182 83.4643L147.711 83.0011C161.888 70.5987 175.252 59.3528 187.043 49.4317L192.136 45.1444C197.395 40.7114 203.356 35.6862 210.997 33.873C217.754 32.2664 224.83 34.3913 229.926 39.556C232.57 42.3735 234.922 45.507 236.97 48.9396C238.505 51.3561 239.875 53.6387 241.2 55.8464C243.075 58.9699 244.846 61.921 246.602 64.4038C249.915 69.0917 253.466 72.8285 256.501 75.8662C262.409 82.0075 269.34 86.9834 277.196 90.7234C283.308 93.7083 291.18 96.7854 301.262 100.129C310.401 103.12 321.562 106.325 335.381 109.925C366.204 118.019 392.55 123.475 415.926 126.603L415.279 127.537C391.876 124.404 365.506 118.944 334.659 110.843C320.83 107.24 309.658 104.033 300.507 101.039C290.402 97.6863 282.51 94.602 276.379 91.6075C268.481 87.8473 261.513 82.845 255.573 76.6713C252.526 73.6226 248.962 69.871 245.632 65.1596C243.868 62.6649 242.094 59.7085 240.215 56.5778C238.891 54.3724 237.522 52.0923 235.99 49.68C233.956 46.2708 231.621 43.1582 228.996 40.3588C224.028 35.3232 217.186 33.2384 210.696 34.7811C203.448 36.5016 197.931 41.1518 192.596 45.6492L187.502 49.9374C175.719 59.8521 162.363 71.0903 148.203 83.4786L147.674 83.9411C135.732 94.4039 120.868 107.425 103.779 113.471C86.7191 119.506 75.1976 115.086 66.7846 111.86L65.5904 111.403C57.0884 108.17 48.0638 105.476 31.2329 107.978C30.0855 108.146 28.8739 108.361 27.6323 108.615C8.61028 112.497 -18.0657 124.913 -30.0094 132.384L-30.2212 131.697Z" fill="url(#paint9_linear_273_2438)" fill-opacity="0.2"/>
<path d="M-29.9839 130.355C-17.2141 120.661 9.99053 107.847 28.6109 104.957C29.8645 104.762 31.0828 104.615 32.2314 104.518C48.7441 103.107 56.8397 107.974 64.6695 112.682C71.6022 116.851 83.2048 123.828 101.703 117.27C119.482 110.966 134.802 96.1442 145.988 85.3211C153.675 77.8914 161.083 70.8022 168.248 63.946C175.996 56.5316 183.314 49.5282 190.181 42.8631L190.428 42.6232C195.906 37.3048 202.115 31.276 210.395 28.7972C217.714 26.6036 225.203 28.4895 230.426 33.8408C233.118 36.7288 235.404 40.0533 237.262 43.7815C239.611 48.2316 241.404 52.6386 242.987 56.5262C243.722 58.3326 244.416 60.0385 245.122 61.6486C247.635 67.3823 250.358 72.2633 252.926 76.6831C257.815 85.0996 262.739 92.0557 270.883 98.6496C276.6 103.305 284.144 107.961 293.305 112.49C302.458 116.969 313.558 121.39 326.295 125.63C345.439 132.039 375.188 140.33 408.205 143.426L407.53 144.446C374.446 141.343 344.646 133.038 325.471 126.618C312.711 122.371 301.589 117.941 292.414 113.451C283.221 108.906 275.648 104.231 269.905 99.5554C261.712 92.9217 256.762 85.9305 251.85 77.4752C249.276 73.0437 246.546 68.1501 244.024 62.3967C243.315 60.7809 242.62 59.0719 241.884 57.2631C240.305 53.3848 238.516 48.9889 236.178 44.5576C234.339 40.8663 232.076 37.5745 229.412 34.7143C224.342 29.5193 217.141 27.6694 210.151 29.7638C202.34 32.1022 196.344 37.9234 191.054 43.0596L190.806 43.2996C183.933 49.9714 176.612 56.9772 168.861 64.3943C161.698 71.2488 154.293 78.3355 146.611 85.7608C135.272 96.7316 119.743 111.756 101.535 118.212C82.5598 124.939 70.7807 117.856 63.7427 113.624C55.9944 108.965 47.9815 104.147 31.7214 105.537C30.5981 105.632 29.4068 105.776 28.1803 105.967C10.334 108.737 -17.0324 121.457 -29.5786 130.981L-29.9839 130.355Z" fill="url(#paint10_linear_273_2438)" fill-opacity="0.2"/>
<path d="M-29.746 129.019C-17.356 117.993 10.5067 104.188 29.2496 102.215C30.4929 102.084 31.6965 102.007 32.828 101.985C47.9057 101.684 54.7017 107.634 61.8971 113.933L62.9658 114.866C70.5729 121.491 81.5964 128.282 99.4701 121.931C116.727 115.801 131.639 101.018 144.262 87.6417L149.482 82.1182C163.497 67.288 176.736 53.2794 188.701 40.1832C194.394 33.9517 200.846 26.8895 209.789 23.7223C219.062 20.4347 226.787 23.8402 230.923 28.1235C233.673 31.0767 235.894 34.5952 237.551 38.6233C240.058 44.3696 241.514 50.3007 242.798 55.5338C243.08 56.6815 243.355 57.8052 243.634 58.8964C245.477 66.1103 247.552 72.3496 249.338 77.5015C252.66 87.0795 256.803 97.2326 264.557 106.58C269.814 112.94 276.807 119.088 285.345 124.851C295.231 131.318 305.869 136.821 317.208 141.333C335.512 148.827 364.816 158.193 400.479 160.246L399.781 161.351C364.013 159.291 334.63 149.902 316.28 142.388C304.906 137.862 294.237 132.343 284.321 125.856C275.746 120.067 268.72 113.89 263.436 107.496C255.635 98.094 251.473 87.8945 248.136 78.2739C246.347 73.1111 244.268 66.8592 242.42 59.6262C242.14 58.5337 241.865 57.4088 241.582 56.2591C240.303 51.0466 238.853 45.1385 236.363 39.431C234.729 35.4552 232.538 31.982 229.825 29.0662C225.828 24.9274 218.417 21.6177 209.608 24.7404C201.205 27.7168 194.977 34.5338 189.482 40.548C177.503 53.6598 164.257 67.6752 150.233 82.5137L145.016 88.0362C132.192 101.625 117.026 116.649 99.2903 122.95C80.8919 129.486 69.6413 122.581 61.8955 115.835L60.8259 114.901C53.7151 108.675 46.998 102.796 32.2051 103.092C31.1042 103.112 29.9331 103.187 28.7221 103.315C10.3055 105.253 -17.0217 118.773 -29.1513 129.567L-29.746 129.019Z" fill="url(#paint11_linear_273_2438)" fill-opacity="0.2"/>
<path d="M-29.5009 127.689C-15.9275 113.872 12.3819 100.425 29.8927 99.4772C31.1186 99.4104 32.3081 99.4041 33.4282 99.4593C47.5462 100.136 53.3129 107.26 59.4188 114.802C60.0282 115.556 60.6384 116.31 61.2595 117.059C70.8827 128.669 82.6519 131.788 97.2375 126.597C114.411 120.484 129.159 105.38 142.539 89.9687C156.291 74.1395 172.355 55.5276 187.228 37.5053C192.707 30.841 199.527 22.5449 209.18 18.6535C215.686 16.0289 224.947 15.6381 231.423 22.41C234.233 25.4298 236.389 29.1449 237.841 33.4698C240.232 40.1595 241.096 47.4025 241.858 53.7931L242.142 56.1491C242.986 63.0073 244.097 69.846 245.744 78.3224C247.99 89.5526 251.229 102.637 258.226 114.515C262.967 122.586 269.412 130.225 277.384 137.218C286.615 145.09 296.887 151.714 308.123 157.04C333.526 169.404 362.791 176.33 392.753 177.069L392.036 178.259C361.955 177.516 332.581 170.566 307.09 158.159C295.811 152.812 285.499 146.162 276.233 138.26C268.222 131.232 261.743 123.553 256.976 115.437C249.94 103.494 246.686 90.3536 244.431 79.0755C242.781 70.5824 241.668 63.7308 240.822 56.8574L240.538 54.4988C239.779 48.1403 238.92 40.934 236.55 34.305C235.123 30.0494 233.003 26.3933 230.24 23.4209C226.343 19.3451 218.459 15.9294 209.068 19.7168C200.019 23.3648 193.44 31.368 188.153 37.7994C173.261 55.8451 157.185 74.4715 143.422 90.313C129.802 106.001 114.758 121.386 97.0466 127.691C81.9795 133.054 69.8792 129.899 60.0544 118.045C59.4326 117.294 58.8178 116.541 58.21 115.784C52.1839 108.34 46.4921 101.309 32.688 100.647C31.6032 100.594 30.4506 100.6 29.263 100.665C12.1341 101.592 -15.5073 114.694 -28.728 128.152L-29.5009 127.689Z" fill="url(#paint12_linear_273_2438)" fill-opacity="0.2"/>
<path d="M-29.2526 126.358C-15.7227 110.89 12.7749 96.7725 30.5361 96.739C31.756 96.7366 32.9302 96.8018 34.0278 96.9329C47.4418 98.522 52.5241 107.249 57.4387 115.69C58.1342 116.884 58.8294 118.079 59.5478 119.254C65.1902 128.487 75.9214 138.065 95.0046 131.259C112.913 124.873 128.211 107.979 140.815 92.2953C158.443 70.3696 173.144 51.5708 185.757 34.8253C191.027 27.8088 198.246 18.1974 208.567 13.585C219.149 8.85463 227.761 12.3027 231.919 16.694C234.787 19.7883 236.878 23.703 238.128 28.3176C240.277 35.6874 240.45 44.0556 240.602 51.4389L240.644 53.4013C240.834 61.7775 241.325 70.1965 242.144 79.1389C243.881 97.4574 246.886 110.815 251.888 122.448C256.421 132.759 262.29 141.846 269.418 149.588C277.994 158.833 287.903 166.581 299.036 172.748C323.746 186.749 353.479 194.06 385.023 193.891L384.29 195.163C352.589 195.333 322.715 187.989 297.897 173.927C286.712 167.732 276.758 159.948 268.143 150.66C260.977 142.876 255.076 133.741 250.52 123.374C245.492 111.681 242.473 98.2659 240.729 79.8749C239.908 70.9142 239.417 62.4779 239.227 54.0836L239.185 52.1192C239.026 44.4223 238.861 36.464 236.736 29.1766C235.512 24.6505 233.463 20.8104 230.652 17.7742C226.669 13.5692 218.486 10.2375 208.528 14.6886C198.868 19.0059 191.903 28.2794 186.817 35.0504C174.187 51.8189 159.47 70.6384 141.825 92.5858C128.972 108.579 113.335 125.82 94.8009 132.429C75.0243 139.483 63.9897 129.698 58.2152 120.248C57.495 119.07 56.7977 117.873 56.1007 116.675C51.2547 108.353 46.2431 99.7477 33.1649 98.1989C32.1078 98.0717 30.9751 98.0096 29.7994 98.0118C12.8135 98.0439 -15.4283 112.002 -28.3139 126.734L-29.2526 126.358Z" fill="url(#paint13_linear_273_2438)" fill-opacity="0.2"/>
<path d="M-28.9941 125.028C-15.6799 108.172 13.5658 93.0954 31.1843 94.0039C32.3928 94.0662 33.5527 94.2027 34.6316 94.4108C47.4909 96.8754 51.6874 106.901 55.7455 116.596C56.4179 118.202 57.1125 119.862 57.8341 121.452C61.7626 130.115 71.5256 143.514 92.7729 135.924C111.336 129.292 126.605 111.325 139.094 94.6239C156.063 71.9401 170.848 51.5028 184.293 32.1451C189.339 24.8663 196.966 13.8649 207.956 8.52001C214.971 5.1071 225.588 3.70318 232.419 10.9783C235.346 14.1492 237.372 18.266 238.417 23.1669C240.259 31.1741 239.742 40.2195 239.242 48.9674L239.146 50.6561C238.593 60.5287 238.39 70.3864 238.542 79.9567C238.905 100.421 241.131 116.444 245.548 130.383C249.362 142.248 254.689 152.824 261.453 161.96C269.379 172.55 278.923 181.424 289.952 188.458C314.045 204.103 344.248 211.799 377.295 210.715L376.548 212.07C343.303 213.16 312.928 205.423 288.706 189.695C277.62 182.624 268.026 173.704 260.059 163.058C253.259 153.873 247.904 143.241 244.069 131.314C239.632 117.309 237.396 101.219 237.031 80.6786C236.878 71.0861 237.082 61.2055 237.636 51.3113L237.732 49.6212C238.229 40.933 238.743 31.9495 236.925 24.0455C235.905 19.254 233.927 15.2289 231.067 12.1281C224.553 5.18993 214.566 6.46216 207.992 9.65954C198.5 14.2758 191.927 23.0057 185.48 32.305C172.017 51.6892 157.215 72.1502 140.228 94.8585C134.893 101.993 127.693 111.223 119.311 119.331C110.177 128.166 101.426 134.001 92.557 137.17C70.4677 145.061 60.4107 131.335 56.3811 122.45C55.6569 120.852 54.9602 119.187 54.2864 117.578C50.2873 108.025 46.1516 98.1462 33.6456 95.7486C32.6097 95.5494 31.4963 95.4182 30.336 95.3583C13.2599 94.4772 -15.0438 109.038 -27.9033 125.318L-28.9941 125.028Z" fill="url(#paint14_linear_273_2438)" fill-opacity="0.2"/>
<path d="M-28.731 123.694C-15.3472 105.141 14.0861 89.3826 31.8326 91.2692C33.0158 91.3936 34.1515 91.6007 35.2354 91.8899C47.6281 95.2089 50.9803 106.543 54.222 117.504C54.8255 119.541 55.4484 121.648 56.1169 123.651C64.2159 147.897 84.5131 142.743 90.5416 140.587C109.845 133.678 125.71 113.639 137.375 96.9521C153.588 73.7655 168.881 51.0586 182.83 29.4617C189.335 19.3833 196.585 9.07242 207.342 3.45603C218.451 -2.34475 228.192 0.183821 232.918 5.26285C235.906 8.51193 237.867 12.8327 238.705 18.0164C240.196 26.5108 239.012 36.4334 237.868 46.0299L237.644 47.9082C236.295 59.0843 235.385 70.1402 234.939 80.7714C234.016 103.157 235.411 121.981 239.205 138.318C242.328 151.706 247.112 163.77 253.485 174.333C260.768 186.24 269.948 196.242 280.868 204.168C304.392 221.461 335.063 229.542 369.564 227.537L368.807 228.974C334.064 230.992 303.187 222.862 279.515 205.461C268.533 197.489 259.301 187.43 251.976 175.455C245.57 164.837 240.761 152.71 237.621 139.252C233.811 122.846 232.409 103.948 233.336 81.481C233.783 70.8226 234.696 59.7387 236.048 48.5364L236.271 46.6582C237.408 37.1319 238.583 27.2823 237.114 18.9118C236.299 13.8598 234.391 9.64825 231.481 6.48075C226.994 1.65708 217.825 -0.786012 207.456 4.62828C197.397 9.88025 190.422 19.8239 184.139 29.5594C170.172 51.1835 154.861 73.9168 138.629 97.13C126.698 114.197 110.424 134.712 90.3132 141.909C80.8841 145.283 72.783 144.905 66.2358 140.787C59.6493 136.642 56.2463 129.723 54.5513 124.649C53.879 122.635 53.2538 120.523 52.6496 118.48C49.4563 107.682 46.1533 96.5171 34.1246 93.2946C33.0878 93.0187 32.0017 92.8208 30.8705 92.7016C13.7502 90.8813 -14.6166 106.045 -27.499 123.904L-28.731 123.694Z" fill="url(#paint15_linear_273_2438)" fill-opacity="0.2"/>
<path d="M-28.4672 122.356C-21.5219 111.912 -10.1067 102.109 2.85287 95.4608C15.8127 88.8123 27.8337 86.5926 35.8354 89.37C47.8224 93.5296 50.357 106.181 52.8079 118.416C53.3025 120.885 53.8138 123.439 54.3936 125.851C59.5432 147.269 75.2886 149.915 88.3061 145.248C108.444 138.03 124.972 115.557 135.654 99.2794C151.419 75.2553 166.799 50.8614 181.368 26.7758C184.279 21.9632 187.738 16.3975 191.954 11.2504C196.666 5.4975 201.498 1.29181 206.727 -1.60799C218.434 -8.10233 228.566 -5.7077 233.414 -0.453961C242.334 9.21179 239.338 26.5945 236.44 43.4054L236.138 45.1606C225.59 106.647 228.656 152.947 245.513 186.705C265.982 227.696 308.377 248.711 361.829 244.359L361.064 245.877C307.205 250.262 264.497 229.111 243.893 187.847C226.959 153.938 223.874 107.461 234.459 45.7627L234.761 44.0062C237.622 27.4089 240.58 10.2466 231.892 0.832109C227.307 -4.13621 217.807 -6.44672 206.919 -0.407097C196.281 5.4934 189.167 16.2755 182.793 26.8146C168.208 50.927 152.81 75.3479 137.027 99.3999C114.187 134.205 98.1456 143.033 88.0665 146.646C67.3049 154.089 56.1945 141.298 52.7208 126.845C52.1369 124.42 51.6238 121.859 51.1284 119.382C48.7135 107.331 46.217 94.8696 34.599 90.8376C26.9429 88.1805 15.4088 90.3208 2.95313 96.7104C-9.50281 103.101 -20.4575 112.496 -27.1024 122.49L-28.4672 122.356Z" fill="url(#paint16_linear_273_2438)" fill-opacity="0.2"/>
<defs>
<linearGradient id="paint0_linear_273_2438" x1="381.651" y1="12.7881" x2="238.487" y2="206.693" gradientUnits="userSpaceOnUse">
<stop offset="0.0677083" stop-color="#2CB9E9"/>
<stop offset="0.302083" stop-color="#994FFF"/>
<stop offset="1" stop-color="#E70DD4"/>
</linearGradient>
<linearGradient id="paint1_linear_273_2438" x1="375.625" y1="26.0578" x2="229.532" y2="211.315" gradientUnits="userSpaceOnUse">
<stop offset="0.0677083" stop-color="#2CB9E9"/>
<stop offset="0.302083" stop-color="#994FFF"/>
<stop offset="1" stop-color="#E70DD4"/>
</linearGradient>
<linearGradient id="paint2_linear_273_2438" x1="369.606" y1="39.3303" x2="221.557" y2="215.943" gradientUnits="userSpaceOnUse">
<stop offset="0.0677083" stop-color="#2CB9E9"/>
<stop offset="0.302083" stop-color="#994FFF"/>
<stop offset="1" stop-color="#E70DD4"/>
</linearGradient>
<linearGradient id="paint3_linear_273_2438" x1="363.585" y1="52.6027" x2="214.465" y2="220.652" gradientUnits="userSpaceOnUse">
<stop offset="0.0677083" stop-color="#2CB9E9"/>
<stop offset="0.302083" stop-color="#994FFF"/>
<stop offset="1" stop-color="#E70DD4"/>
</linearGradient>
<linearGradient id="paint4_linear_273_2438" x1="357.561" y1="65.8747" x2="208.17" y2="225.501" gradientUnits="userSpaceOnUse">
<stop offset="0.0677083" stop-color="#2CB9E9"/>
<stop offset="0.302083" stop-color="#994FFF"/>
<stop offset="1" stop-color="#E70DD4"/>
</linearGradient>
<linearGradient id="paint5_linear_273_2438" x1="351.545" y1="79.1455" x2="202.604" y2="230.53" gradientUnits="userSpaceOnUse">
<stop offset="0.0677083" stop-color="#2CB9E9"/>
<stop offset="0.302083" stop-color="#994FFF"/>
<stop offset="1" stop-color="#E70DD4"/>
</linearGradient>
<linearGradient id="paint6_linear_273_2438" x1="345.525" y1="92.4145" x2="197.681" y2="235.77" gradientUnits="userSpaceOnUse">
<stop offset="0.0677083" stop-color="#2CB9E9"/>
<stop offset="0.302083" stop-color="#994FFF"/>
<stop offset="1" stop-color="#E70DD4"/>
</linearGradient>
<linearGradient id="paint7_linear_273_2438" x1="339.511" y1="105.681" x2="193.343" y2="241.243" gradientUnits="userSpaceOnUse">
<stop offset="0.0677083" stop-color="#2CB9E9"/>
<stop offset="0.302083" stop-color="#994FFF"/>
<stop offset="1" stop-color="#E70DD4"/>
</linearGradient>
<linearGradient id="paint8_linear_273_2438" x1="333.5" y1="118.947" x2="189.525" y2="246.965" gradientUnits="userSpaceOnUse">
<stop offset="0.0677083" stop-color="#2CB9E9"/>
<stop offset="0.302083" stop-color="#994FFF"/>
<stop offset="1" stop-color="#E70DD4"/>
</linearGradient>
<linearGradient id="paint9_linear_273_2438" x1="327.491" y1="132.212" x2="186.168" y2="252.948" gradientUnits="userSpaceOnUse">
<stop offset="0.0677083" stop-color="#2CB9E9"/>
<stop offset="0.302083" stop-color="#994FFF"/>
<stop offset="1" stop-color="#E70DD4"/>
</linearGradient>
<linearGradient id="paint10_linear_273_2438" x1="321.467" y1="145.498" x2="183.167" y2="259.266" gradientUnits="userSpaceOnUse">
<stop offset="0.0677083" stop-color="#2CB9E9"/>
<stop offset="0.302083" stop-color="#994FFF"/>
<stop offset="1" stop-color="#E70DD4"/>
</linearGradient>
<linearGradient id="paint11_linear_273_2438" x1="315.426" y1="158.796" x2="180.477" y2="265.897" gradientUnits="userSpaceOnUse">
<stop offset="0.0677083" stop-color="#2CB9E9"/>
<stop offset="0.302083" stop-color="#994FFF"/>
<stop offset="1" stop-color="#E70DD4"/>
</linearGradient>
<linearGradient id="paint12_linear_273_2438" x1="309.379" y1="172.079" x2="178.08" y2="272.759" gradientUnits="userSpaceOnUse">
<stop offset="0.0677083" stop-color="#2CB9E9"/>
<stop offset="0.302083" stop-color="#994FFF"/>
<stop offset="1" stop-color="#E70DD4"/>
</linearGradient>
<linearGradient id="paint13_linear_273_2438" x1="303.312" y1="185.324" x2="175.926" y2="279.82" gradientUnits="userSpaceOnUse">
<stop offset="0.0677083" stop-color="#2CB9E9"/>
<stop offset="0.302083" stop-color="#994FFF"/>
<stop offset="1" stop-color="#E70DD4"/>
</linearGradient>
<linearGradient id="paint14_linear_273_2438" x1="297.241" y1="198.55" x2="174.008" y2="287.101" gradientUnits="userSpaceOnUse">
<stop offset="0.0677083" stop-color="#2CB9E9"/>
<stop offset="0.302083" stop-color="#994FFF"/>
<stop offset="1" stop-color="#E70DD4"/>
</linearGradient>
<linearGradient id="paint15_linear_273_2438" x1="291.156" y1="211.751" x2="172.291" y2="294.59" gradientUnits="userSpaceOnUse">
<stop offset="0.0677083" stop-color="#2CB9E9"/>
<stop offset="0.302083" stop-color="#994FFF"/>
<stop offset="1" stop-color="#E70DD4"/>
</linearGradient>
<linearGradient id="paint16_linear_273_2438" x1="285.061" y1="224.931" x2="170.751" y2="302.286" gradientUnits="userSpaceOnUse">
<stop offset="0.0677083" stop-color="#2CB9E9"/>
<stop offset="0.302083" stop-color="#994FFF"/>
<stop offset="1" stop-color="#E70DD4"/>
</linearGradient>
</defs>
</svg>
