<svg width="425" height="225" viewBox="0 0 425 225" fill="none" xmlns="http://www.w3.org/2000/svg">
<path d="M580.424 238.178L580.246 238.006C575.085 241.741 566.686 242.3 555.958 239.627C545.985 237.039 535.418 232.433 524.758 226.028C513.787 219.444 503.071 211.578 492.708 203.971C483.819 197.447 474.627 190.7 465.296 184.775C412.513 151.262 353.57 146.25 331.105 173.365C330.056 174.631 329.046 175.99 328.07 177.304C324.242 182.459 320.283 187.788 312.813 189.172C305.974 190.44 296.799 188.222 286.279 182.756C276.83 177.818 267.311 170.949 258.388 162.628C249.414 154.207 241.399 144.986 233.649 136.07C227.08 128.513 220.288 120.699 212.927 113.386C201.2 101.734 187.418 90.9107 173.071 82.0847C158.406 73.1127 143.823 66.437 129.931 62.3364C115.815 58.2167 102.578 56.6892 90.736 57.8137C78.9657 58.9469 68.9942 62.7794 61.8994 68.8959L62.0837 69.0633C69.1637 62.9586 79.1149 59.1342 90.8617 58.0029C102.68 56.8813 115.89 58.4057 129.977 62.5163C143.841 66.6087 158.395 73.2712 173.031 82.2256C187.349 91.0339 201.104 101.835 212.808 113.463C220.157 120.765 226.944 128.574 233.508 136.125C241.265 145.05 249.287 154.278 258.277 162.715C267.231 171.064 276.783 177.957 286.265 182.912C296.841 188.406 306.069 190.636 312.951 189.36C320.459 187.968 324.428 182.626 328.265 177.459C329.241 176.145 330.25 174.787 331.298 173.523C353.723 146.456 412.562 151.459 465.25 184.912C474.57 190.829 483.755 197.572 492.638 204.092C503.01 211.705 513.734 219.576 524.722 226.171C535.414 232.595 546.014 237.214 556.017 239.81C566.795 242.497 575.234 241.932 580.424 238.178Z" fill="url(#paint0_linear_273_2456)" fill-opacity="0.5"/>
<path d="M580.129 236.845L579.885 236.591C574.7 239.49 566.221 239.472 555.365 236.54C545.325 233.728 534.814 229.265 524.172 223.297C522.868 222.567 521.512 221.792 520.139 220.991C511.154 215.748 502.525 209.912 494.181 204.268C485.397 198.329 476.314 192.185 467.071 186.936C453.007 178.948 438.133 173.38 425.438 168.987C409.332 163.412 396.78 160.045 385.936 158.389C369.493 155.884 354.993 156.808 344.003 161.061C339.377 162.785 335.24 165.201 331.649 168.275C329.789 169.894 328.111 171.757 326.334 173.728C324.73 175.507 323.073 177.348 321.28 178.974C318.883 181.296 315.944 182.983 312.543 183.992C306.212 185.705 298.203 184.506 288.739 180.427C279.88 176.588 270.765 170.774 262.056 163.408C253.843 156.398 246.443 148.638 239.287 141.132C232.985 134.524 226.469 127.691 219.343 121.294C208.408 111.481 195.547 102.418 182.152 95.0837C167.359 87.0631 152.815 81.3089 139.053 78.0319C124.985 74.7206 111.788 73.7182 99.8524 75.0543C87.8946 76.3834 77.4348 80.0716 69.6043 85.72L69.8607 85.9665C77.6722 80.3317 88.1067 76.6525 100.036 75.3264C111.942 73.9934 125.106 74.9933 139.14 78.2965C152.864 81.5642 167.368 87.3027 182.121 95.3017C195.475 102.613 208.295 111.647 219.194 121.428C226.302 127.808 232.809 134.633 239.103 141.232C246.27 148.749 253.682 156.521 261.919 163.552C270.677 170.96 279.845 176.807 288.753 180.667C298.159 184.721 306.458 185.963 312.755 184.259C316.177 183.245 319.134 181.548 321.547 179.212C323.343 177.581 325.003 175.739 326.608 173.958C328.382 171.989 330.058 170.129 331.914 168.515C335.493 165.451 339.618 163.042 344.23 161.323C355.19 157.081 369.652 156.16 386.051 158.66C396.873 160.312 409.404 163.673 425.487 169.24C438.16 173.626 453.006 179.183 467.033 187.15C476.254 192.387 485.327 198.523 494.1 204.456C502.454 210.105 511.091 215.947 520.093 221.201C521.469 222.003 522.829 222.78 524.135 223.511C534.816 229.501 545.364 233.979 555.441 236.802C566.365 239.752 574.902 239.768 580.129 236.845Z" fill="url(#paint1_linear_273_2456)" fill-opacity="0.5"/>
<path d="M579.819 235.515L579.521 235.174C567.951 239.788 543.033 230.652 523.573 220.563C522.285 219.896 520.946 219.19 519.59 218.466C511.27 214.012 503.47 209.23 495.926 204.604C486.738 198.971 478.06 193.65 468.829 189.093C458.998 184.24 448.392 180.666 437.164 176.883C434.073 175.841 430.878 174.765 427.667 173.65C425.054 172.743 422.468 171.837 419.908 170.932C408.396 166.882 397.522 163.056 387.593 160.652C371.31 156.718 356.713 155.905 345.383 158.302C340.508 159.213 336.087 160.848 332.19 163.183C329.246 164.994 326.543 167.652 323.93 170.223C322.905 171.231 321.845 172.273 320.78 173.257C317.786 176.02 315.158 177.733 312.261 178.812C306.277 180.991 298.666 180.579 290.256 177.622C282.276 174.87 273.901 170.284 265.703 164.18C258.211 158.523 251.392 152.16 244.798 146.006C238.798 140.407 232.595 134.618 225.738 129.193C215.297 120.937 202.994 113.41 190.158 107.424C176.396 100.993 161.874 96.2565 148.163 93.7272C120.737 88.69 94.9102 91.9032 77.3041 102.544L77.6274 102.872C95.1887 92.2589 120.949 89.0536 148.301 94.0775C161.969 96.5985 176.443 101.319 190.159 107.729C202.942 113.69 215.192 121.184 225.584 129.401C232.413 134.805 238.604 140.582 244.592 146.17C251.201 152.338 258.036 158.716 265.564 164.4C273.83 170.555 282.274 175.177 290.32 177.952C298.818 180.94 306.508 181.356 312.554 179.155C315.474 178.068 318.119 176.344 321.128 173.567C322.195 172.582 323.256 171.539 324.281 170.53C326.889 167.965 329.585 165.312 332.515 163.511C336.394 161.187 340.794 159.559 345.646 158.654C356.934 156.265 371.478 157.076 387.706 160.997C397.608 163.394 408.469 167.216 419.968 171.261C422.527 172.162 425.114 173.068 427.729 173.98C430.942 175.095 434.139 176.172 437.231 177.214C448.439 180.991 459.025 184.557 468.817 189.391C478.016 193.933 486.68 199.245 495.852 204.869C503.405 209.5 511.215 214.289 519.556 218.753C520.913 219.478 522.256 220.185 523.546 220.855C543.101 230.992 568.154 240.167 579.819 235.515Z" fill="url(#paint2_linear_273_2456)" fill-opacity="0.5"/>
<path d="M579.503 234.186L579.17 233.755C565.173 237.145 532.615 222.42 522.97 217.827C521.644 217.195 520.333 216.565 519.037 215.937C511.601 212.328 504.759 208.605 498.144 205.004C488.775 199.905 479.926 195.088 470.579 191.246C463.891 188.497 456.671 186.42 449.027 184.221C442.912 182.462 436.588 180.643 429.898 178.313C422.704 175.807 415.779 173.054 409.082 170.391C402.081 167.607 395.469 164.978 389.266 162.92C373.25 157.617 358.559 155.066 346.781 155.544C342.349 155.724 337.615 156.069 332.742 158.09C328.437 159.874 324.667 163.419 321.021 166.846L320.283 167.54C317.855 169.98 315.078 172.018 311.979 173.635C306.563 176.287 299.615 176.692 291.763 174.814C284.639 173.114 277.008 169.754 269.337 164.941C262.471 160.571 256.442 155.739 250.06 150.623C244.436 146.115 238.62 141.453 232.12 137.081C222.167 130.397 210.423 124.409 198.156 119.762C184.852 114.701 170.714 111.125 157.271 109.423C130.496 106.06 104.158 109.684 85.0097 119.366L85.3947 119.778C104.496 110.12 130.767 106.505 157.471 109.86C170.868 111.556 184.957 115.119 198.212 120.162C210.418 124.785 222.1 130.741 231.994 137.385C238.458 141.733 244.257 146.381 249.864 150.875C256.269 156.009 262.319 160.858 269.231 165.258C276.987 170.124 284.701 173.521 291.904 175.24C299.849 177.141 306.879 176.732 312.36 174.049C315.478 172.424 318.272 170.375 320.713 167.921L321.452 167.227C325.085 163.811 328.842 160.279 333.112 158.51C337.945 156.505 342.649 156.162 347.052 155.984C358.775 155.508 373.402 158.049 389.352 163.33C395.534 165.381 402.137 168.007 409.127 170.786C415.832 173.452 422.765 176.209 429.973 178.719C436.682 181.056 443.015 182.878 449.14 184.64C456.764 186.832 463.965 188.904 470.616 191.637C479.919 195.462 488.748 200.268 498.096 205.355C504.721 208.961 511.57 212.689 519.026 216.307C520.323 216.935 521.636 217.567 522.965 218.201C532.656 222.815 565.373 237.608 579.503 234.186Z" fill="url(#paint3_linear_273_2456)" fill-opacity="0.5"/>
<path d="M579.178 232.857L578.835 232.336C569.668 233.153 550.67 227.351 522.366 215.089L518.481 213.406C512.322 210.734 506.702 208.092 501.267 205.537C491.369 200.883 482.02 196.487 472.319 193.396C467.429 191.838 462.178 190.693 456.617 189.481C449.31 187.889 441.028 186.084 432.133 182.976C422.312 179.545 413.171 175.311 404.332 171.215C399.634 169.039 395.195 166.983 390.953 165.194C375.203 158.564 360.419 154.275 348.201 152.79C343.739 152.248 338.682 151.634 333.305 152.996C328.231 154.279 323.81 157.996 319.788 161.823C317.298 164.192 314.722 166.643 311.698 168.46C306.784 171.542 300.494 172.752 293.259 172.008C286.948 171.301 280.062 169.16 272.948 165.69C266.628 162.553 261.01 158.909 255.061 155.05C249.542 151.377 244.006 148.007 238.484 144.96C229.013 139.867 217.831 135.42 206.145 132.098C192.317 128.243 178.999 125.906 166.377 125.118C140.332 123.405 113.486 127.439 92.7203 136.187L93.1623 136.685C113.882 127.957 140.666 123.931 166.648 125.641C179.227 126.426 192.5 128.755 206.28 132.595C217.905 135.9 229.022 140.321 238.43 145.38C243.925 148.413 249.435 151.767 254.927 155.422C260.904 159.299 266.55 162.96 272.926 166.126C280.134 169.641 287.11 171.811 293.505 172.527C300.829 173.283 307.197 172.061 312.172 168.943C315.218 167.111 317.802 164.653 320.301 162.276C324.3 158.471 328.691 154.776 333.705 153.508C339.01 152.163 344.021 152.772 348.442 153.31C360.595 154.786 375.308 159.056 390.989 165.656C395.214 167.438 399.645 169.491 404.336 171.664C413.196 175.769 422.358 180.013 432.222 183.459C441.163 186.583 449.47 188.393 456.798 189.99C462.341 191.198 467.576 192.339 472.43 193.886C482.075 196.96 491.396 201.342 501.265 205.982C506.707 208.541 512.334 211.187 518.507 213.864L522.393 215.547C550.811 227.86 569.918 233.684 579.178 232.857Z" fill="url(#paint4_linear_273_2456)" fill-opacity="0.5"/>
<path d="M578.829 231.525L578.511 230.92C567.606 230.262 544.684 221.307 526.266 214.112L521.75 212.35C520.449 211.843 519.17 211.351 517.912 210.873C513.841 209.324 510.058 207.835 506.4 206.394C494.703 201.789 484.6 197.812 474.04 195.545C470.391 194.762 466.505 194.241 462.391 193.69C454.224 192.595 444.968 191.355 434.361 187.639C422.676 183.545 411.655 177.62 401.933 172.392C398.687 170.647 395.62 168.999 392.647 167.476C377.24 159.602 362.368 153.575 349.639 150.047L349.329 149.961C344.483 148.617 339.472 147.227 333.871 147.903C329.199 148.463 324.429 151.146 319.287 156.107C318.761 156.614 318.241 157.121 317.728 157.626C315.623 159.688 313.636 161.636 311.408 163.288C306.49 166.935 300.88 168.926 294.735 169.204C289.186 169.465 283.037 168.53 276.523 166.435C270.571 164.492 265.193 161.966 259.5 159.292C254.925 157.144 250.195 154.921 244.814 152.833C235.803 149.35 225.188 146.446 214.117 144.434C200.724 142.049 187.808 140.839 175.473 140.814C150.331 140.711 122.978 145.155 100.428 153.008L100.921 153.592C123.431 145.754 150.731 141.318 175.822 141.421C188.121 141.445 201 142.651 214.353 145.029C225.372 147.032 235.93 149.92 244.885 153.38C250.23 155.455 254.941 157.668 259.498 159.809C265.224 162.498 270.632 165.039 276.646 167.001C283.251 169.126 289.485 170.075 295.112 169.81C301.335 169.528 307.01 167.516 311.979 163.832C314.221 162.169 316.215 160.216 318.325 158.149C318.84 157.644 319.359 157.138 319.883 156.63C324.978 151.714 329.688 149.057 334.282 148.506C339.772 147.844 344.713 149.215 349.492 150.54L349.801 150.625C362.467 154.136 377.268 160.135 392.608 167.974C395.571 169.492 398.63 171.136 401.871 172.879C411.632 178.127 422.696 184.076 434.463 188.199C445.157 191.945 454.456 193.191 462.661 194.291C466.76 194.84 470.632 195.359 474.252 196.136C484.741 198.387 494.808 202.351 506.464 206.939C510.126 208.381 513.912 209.871 517.989 211.423C519.244 211.899 520.52 212.39 521.819 212.897L526.333 214.658C544.811 221.877 567.806 230.86 578.829 231.525Z" fill="url(#paint5_linear_273_2456)" fill-opacity="0.5"/>
<path d="M578.215 229.512C570.458 227.911 557.079 222.891 542.914 217.575C535.513 214.797 527.86 211.925 521.136 209.609C519.846 209.164 518.581 208.74 517.342 208.338L517.236 208.304C499.87 202.652 488.398 198.919 475.756 197.697C473.072 197.437 470.248 197.335 467.259 197.228C458.564 196.913 448.71 196.557 436.597 192.302C423.412 187.671 411.34 180.22 400.689 173.646C398.485 172.285 396.404 171 394.356 169.767C379.846 161.002 365.366 153.487 351.105 147.319L350.459 147.043C345.533 144.936 340.439 142.757 334.451 142.811C327.856 142.869 322.296 146.965 318.793 150.39C317.674 151.484 316.603 152.605 315.566 153.688C314.063 155.262 312.643 156.747 311.123 158.119C306.391 162.391 301.513 165.103 296.21 166.41C291.352 167.602 285.93 167.862 280.077 167.185C274.111 166.499 268.583 165.061 262.731 163.539C259.108 162.596 255.361 161.622 251.128 160.707C241.154 158.677 231.456 157.363 222.087 156.772C209.179 155.866 196.659 155.779 184.571 156.511C160.43 157.947 133.287 162.676 108.145 169.828L108.683 170.5C133.795 163.357 160.901 158.633 185.007 157.2C197.068 156.47 209.561 156.556 222.44 157.46C231.773 158.048 241.434 159.357 251.37 161.379C255.582 162.289 259.318 163.261 262.932 164.201C268.816 165.731 274.374 167.177 280.399 167.87C286.325 168.556 291.815 168.292 296.734 167.085C302.097 165.764 307.023 163.028 311.794 158.72C313.321 157.342 314.745 155.852 316.252 154.275C317.287 153.193 318.357 152.074 319.472 150.984C322.931 147.602 328.408 143.557 334.857 143.501C340.676 143.448 345.67 145.584 350.5 147.65L351.146 147.926C365.35 154.07 379.772 161.555 394.224 170.285C396.263 171.513 398.342 172.797 400.542 174.155C411.254 180.766 423.396 188.261 436.711 192.938C448.965 197.242 458.884 197.601 467.636 197.917C470.615 198.025 473.429 198.126 476.091 198.384C488.64 199.596 500.072 203.317 517.377 208.948L517.483 208.983C518.715 209.382 519.973 209.803 521.257 210.247C527.968 212.559 535.612 215.427 543.007 218.202C557.213 223.533 570.63 228.568 578.465 230.185L578.215 229.512Z" fill="url(#paint6_linear_273_2456)" fill-opacity="0.5"/>
<path d="M577.94 228.119C573.659 226.624 567.661 224.262 560.718 221.529C548.277 216.631 532.793 210.535 520.512 206.868C519.212 206.479 517.951 206.121 516.761 205.804C499.039 201.045 488.386 199.432 477.459 199.853C475.6 199.925 473.671 200.077 471.628 200.236C463.058 200.907 452.392 201.743 438.826 196.966C424.349 191.868 411.468 182.844 400.104 174.882C398.73 173.92 397.385 172.978 396.07 172.066C381.619 162.063 367.092 152.891 352.583 144.609L351.865 144.198C346.775 141.287 341.512 138.277 335.035 137.724C327.251 137.056 321.205 141.792 318.294 144.675C316.559 146.392 314.998 148.196 313.489 149.941C312.6 150.969 311.724 151.981 310.833 152.952C306.248 157.951 301.945 161.442 297.677 163.626C293.455 165.754 288.745 167.203 283.615 167.953C276.629 169.033 270.347 168.886 262.393 168.699C260.81 168.662 259.161 168.623 257.425 168.593C248.586 168.459 239.375 168.635 230.047 169.115C217.861 169.697 205.619 170.738 193.663 172.21C172.018 174.916 146.568 179.639 115.86 186.649L116.439 187.408C147.131 180.402 172.564 175.682 194.19 172.979C206.131 171.508 218.358 170.469 230.53 169.887C239.844 169.408 249.04 169.232 257.863 169.366C259.596 169.397 261.244 169.435 262.826 169.472C270.812 169.659 277.12 169.807 284.158 168.72C289.338 167.961 294.093 166.498 298.356 164.35C302.661 162.147 306.995 158.632 311.606 153.605C312.499 152.632 313.377 151.617 314.268 150.586C315.774 148.847 317.33 147.047 319.056 145.338C321.919 142.503 327.852 137.845 335.421 138.495C341.66 139.027 346.789 141.961 351.749 144.798L352.469 145.209C366.935 153.467 381.42 162.612 395.827 172.585C397.139 173.495 398.481 174.435 399.853 175.396C411.305 183.419 424.285 192.513 438.956 197.678C452.724 202.527 463.483 201.684 472.127 201.007C474.164 200.848 476.088 200.697 477.935 200.626C488.775 200.208 499.357 201.811 516.98 206.544C518.158 206.859 519.408 207.213 520.697 207.598C532.928 211.252 548.383 217.336 560.801 222.225C567.758 224.963 573.766 227.328 578.073 228.833L577.94 228.119Z" fill="url(#paint7_linear_273_2456)" fill-opacity="0.5"/>
<path d="M577.687 226.743C565.06 220.57 538.676 208.859 519.884 204.126C518.598 203.802 517.352 203.514 516.178 203.27C498.73 199.612 489.078 200.079 479.16 202.018C478.052 202.234 476.908 202.48 475.724 202.735C466.989 204.61 456.119 206.945 441.06 201.63C425.412 196.107 411.289 184.993 399.941 176.064L397.791 174.374C384.339 163.836 370.447 153.522 354.073 141.914L353.436 141.463C348.389 137.878 342.666 133.813 335.629 132.64C329.351 131.592 322.852 133.895 317.797 138.96C315.412 141.348 313.448 143.949 311.549 146.464L310.545 147.789C306.298 153.355 302.735 157.707 299.148 160.854C295.535 163.958 291.531 166.595 287.162 168.746C280.392 172.199 274.039 174.3 263.724 176.495C256.858 177.978 248.453 179.532 238.721 181.332L231.012 182.723C222.465 184.259 212.778 185.999 202.755 187.91C193.118 189.768 183.262 191.766 172.828 193.88C156.548 197.179 139.714 200.592 123.579 203.47L124.194 204.317C140.336 201.437 157.174 198.024 173.457 194.724C183.889 192.609 193.744 190.612 203.377 188.755C213.397 186.845 223.082 185.104 231.627 183.569L239.339 182.177C249.076 180.377 257.485 178.823 264.359 177.338C274.72 175.132 281.105 173.021 287.914 169.548C292.31 167.382 296.341 164.728 299.977 161.603C303.586 158.438 307.162 154.071 311.421 148.488L312.426 147.161C314.318 144.656 316.275 142.065 318.643 139.693C323.593 134.733 329.911 132.47 335.978 133.484C342.701 134.604 348.012 138.376 353.149 142.025L353.785 142.477C370.134 154.066 384.001 164.362 397.427 174.879L399.573 176.567C411.032 185.583 425.291 196.803 441.202 202.419C456.542 207.833 467.53 205.474 476.358 203.577C477.539 203.324 478.68 203.079 479.784 202.863C489.615 200.941 499.183 200.478 516.485 204.105C517.643 204.347 518.874 204.631 520.144 204.951C538.826 209.656 565.088 221.315 577.661 227.461L577.687 226.743Z" fill="url(#paint8_linear_273_2456)" fill-opacity="0.5"/>
<path d="M577.448 225.384C565.386 217.84 538.452 205.302 519.254 201.384C517.99 201.125 516.758 200.907 515.59 200.735C498.56 198.204 489.443 200.924 480.859 204.189L479.663 204.645C471.357 207.832 459.981 212.196 443.293 206.292C426.547 200.368 411.852 187.494 400.044 177.151L399.516 176.688C385.339 164.285 371.975 153.039 360.184 143.118L355.091 138.831C349.831 134.398 343.87 129.373 336.23 127.56C329.473 125.953 322.397 128.078 317.301 133.243C314.657 136.06 312.305 139.193 310.256 142.626C308.721 145.043 307.351 147.325 306.027 149.533C304.151 152.656 302.38 155.608 300.625 158.09C297.311 162.778 293.761 166.515 290.725 169.553C284.817 175.694 277.886 180.67 270.03 184.41C263.918 187.395 256.047 190.472 245.964 193.816C236.825 196.807 225.664 200.011 211.845 203.612C181.023 211.706 154.677 217.161 131.301 220.29L131.948 221.223C155.35 218.091 181.721 212.63 212.567 204.53C226.397 200.927 237.569 197.72 246.72 194.725C256.824 191.373 264.716 188.289 270.847 185.294C278.745 181.534 285.714 176.532 291.654 170.358C294.701 167.309 298.265 163.558 301.595 158.846C303.358 156.351 305.133 153.395 307.012 150.264C308.335 148.059 309.704 145.779 311.237 143.366C313.271 139.957 315.606 136.845 318.23 134.045C323.198 129.01 330.04 126.925 336.53 128.468C343.778 130.188 349.295 134.838 354.631 139.336L359.725 143.624C371.508 153.539 384.863 164.777 399.024 177.165L399.552 177.628C411.495 188.09 426.358 201.112 443.448 207.158C460.507 213.192 472.029 208.773 480.442 205.546L481.636 205.089C490.138 201.857 499.163 199.162 515.994 201.664C517.141 201.833 518.353 202.047 519.594 202.301C538.616 206.183 565.292 218.6 577.236 226.07L577.448 225.384Z" fill="url(#paint9_linear_273_2456)" fill-opacity="0.5"/>
<path d="M577.21 224.042C564.441 214.348 537.236 201.534 518.616 198.644C517.362 198.448 516.144 198.301 514.995 198.205C498.483 196.793 490.387 201.661 482.557 206.369C475.624 210.538 464.022 217.514 445.524 210.956C427.745 204.653 412.425 189.831 401.238 179.008C393.551 171.578 386.144 164.489 378.979 157.632C371.231 150.218 363.912 143.215 357.045 136.55L356.799 136.31C351.321 130.991 345.111 124.963 336.831 122.484C329.512 120.29 322.024 122.176 316.801 127.527C314.109 130.415 311.823 133.74 309.965 137.468C307.616 141.918 305.823 146.325 304.24 150.213C303.505 152.019 302.811 153.725 302.105 155.335C299.592 161.069 296.869 165.95 294.3 170.37C289.412 178.786 284.487 185.742 276.344 192.336C270.627 196.991 263.083 201.647 253.921 206.177C244.768 210.656 233.669 215.077 220.931 219.316C201.788 225.725 172.039 234.016 139.022 237.112L139.697 238.132C172.78 235.029 202.581 226.724 221.755 220.304C234.516 216.058 245.638 211.627 254.812 207.137C264.006 202.593 271.579 197.918 277.322 193.242C285.515 186.608 290.465 179.617 295.377 171.162C297.951 166.73 300.681 161.837 303.203 156.083C303.911 154.467 304.606 152.758 305.343 150.95C306.921 147.071 308.71 142.675 311.049 138.244C312.888 134.553 315.151 131.261 317.815 128.401C322.885 123.206 330.085 121.356 337.076 123.45C344.887 125.789 350.883 131.61 356.173 136.746L356.42 136.986C363.293 143.658 370.614 150.664 378.365 158.081C385.528 164.935 392.933 172.022 400.616 179.447C411.955 190.418 427.483 205.443 445.691 211.898C464.667 218.626 476.446 211.542 483.484 207.31C491.232 202.651 499.245 197.833 515.505 199.224C516.628 199.318 517.82 199.463 519.046 199.653C536.893 202.423 564.259 215.144 576.805 224.667L577.21 224.042Z" fill="url(#paint10_linear_273_2456)" fill-opacity="0.5"/>
<path d="M576.973 222.706C564.583 211.68 536.72 197.875 517.977 195.902C516.734 195.771 515.53 195.694 514.399 195.672C499.321 195.371 492.525 201.321 485.329 207.62L484.261 208.553C476.654 215.179 465.63 221.969 447.756 215.619C430.5 209.488 415.587 194.705 402.964 181.329L397.745 175.805C383.73 160.975 370.491 146.966 358.526 133.87C352.833 127.639 346.381 120.576 337.438 117.409C328.165 114.122 320.44 117.527 316.303 121.811C313.554 124.764 311.333 128.282 309.676 132.31C307.168 138.057 305.713 143.988 304.429 149.221C304.147 150.369 303.872 151.492 303.593 152.583C301.749 159.797 299.675 166.037 297.889 171.189C294.566 180.767 290.424 190.92 282.669 200.267C277.413 206.627 270.419 212.775 261.882 218.538C251.996 225.005 241.358 230.508 230.018 235.02C211.715 242.514 182.41 251.88 146.748 253.933L147.446 255.038C183.214 252.978 212.596 243.589 230.946 236.075C242.32 231.549 252.99 226.03 262.905 219.543C271.48 213.754 278.507 207.577 283.79 201.183C291.591 191.781 295.754 181.582 299.091 171.961C300.88 166.798 302.958 160.546 304.807 153.313C305.086 152.221 305.362 151.096 305.644 149.946C306.923 144.734 308.373 138.826 310.864 133.118C312.498 129.142 314.689 125.669 317.401 122.753C321.399 118.614 328.809 115.305 337.618 118.427C346.022 121.404 352.25 128.221 357.745 134.235C369.724 147.347 382.969 161.362 396.993 176.201L402.211 181.723C415.034 195.312 430.2 210.336 447.936 216.637C466.335 223.173 477.585 216.268 485.331 209.522L486.401 208.588C493.511 202.362 500.229 196.483 515.021 196.779C516.122 196.799 517.293 196.874 518.504 197.002C536.921 198.94 564.248 212.46 576.378 223.254L576.973 222.706Z" fill="url(#paint11_linear_273_2456)" fill-opacity="0.5"/>
<path d="M576.728 221.375C563.154 207.558 534.845 194.112 517.334 193.164C516.108 193.097 514.918 193.091 513.798 193.146C499.68 193.822 493.914 200.947 487.808 208.489C487.198 209.242 486.588 209.997 485.967 210.746C476.344 222.355 464.575 225.475 449.989 220.283C432.815 214.17 418.068 199.067 404.687 183.655C390.935 167.826 374.871 149.214 359.998 131.192C354.52 124.528 347.7 116.231 338.047 112.34C331.54 109.715 322.28 109.325 315.804 116.097C312.994 119.116 310.838 122.831 309.386 127.156C306.995 133.846 306.131 141.089 305.368 147.48L305.084 149.836C304.24 156.694 303.129 163.533 301.482 172.009C299.237 183.239 295.998 196.324 289.001 208.201C284.26 216.273 277.814 223.912 269.842 230.905C260.612 238.776 250.339 245.401 239.103 250.727C213.7 263.091 184.436 270.017 154.474 270.756L155.191 271.945C185.272 271.203 214.645 264.253 240.137 251.846C251.415 246.498 261.727 239.848 270.994 231.946C279.005 224.918 285.484 217.24 290.251 209.124C297.287 197.18 300.54 184.04 302.795 172.762C304.446 164.269 305.559 157.417 306.405 150.544L306.689 148.185C307.447 141.827 308.307 134.62 310.676 127.992C312.104 123.736 314.223 120.08 316.987 117.107C320.884 113.032 328.768 109.616 338.158 113.403C347.207 117.051 353.787 125.054 359.073 131.486C373.966 149.532 390.042 168.158 403.805 184C417.424 199.687 432.469 215.073 450.18 221.377C465.247 226.74 477.347 223.585 487.172 211.732C487.794 210.981 488.409 210.227 489.017 209.471C495.043 202.027 500.734 194.996 514.539 194.333C515.623 194.28 516.776 194.287 517.964 194.352C535.092 195.278 562.734 208.38 575.955 221.838L576.728 221.375Z" fill="url(#paint12_linear_273_2456)" fill-opacity="0.5"/>
<path d="M576.479 220.044C562.949 204.577 534.452 190.459 516.69 190.426C515.471 190.423 514.296 190.488 513.199 190.619C499.785 192.209 494.702 200.936 489.788 209.377C489.092 210.57 488.397 211.765 487.679 212.94C482.036 222.174 471.305 231.752 452.222 224.945C434.314 218.559 419.015 201.665 406.412 185.982C388.783 164.056 374.082 145.257 361.47 128.512C356.199 121.495 348.981 111.884 338.66 107.272C328.077 102.541 319.466 105.989 315.308 110.381C312.44 113.475 310.348 117.39 309.099 122.004C306.95 129.374 306.777 137.742 306.624 145.125L306.582 147.088C306.392 155.464 305.902 163.883 305.083 172.825C303.346 191.144 300.341 204.501 295.339 216.134C290.806 226.445 284.937 235.532 277.809 243.275C269.233 252.52 259.324 260.268 248.19 266.434C223.481 280.435 193.747 287.746 162.203 287.578L162.936 288.85C194.637 289.019 224.512 281.676 249.33 267.614C260.514 261.418 270.468 253.634 279.083 244.346C286.25 236.563 292.15 227.428 296.707 217.061C301.734 205.368 304.754 191.952 306.498 173.561C307.319 164.601 307.81 156.164 308 147.77L308.042 145.806C308.201 138.109 308.365 130.15 310.491 122.863C311.715 118.337 313.764 114.497 316.574 111.461C320.557 107.256 328.741 103.924 338.698 108.375C348.359 112.692 355.323 121.966 360.409 128.737C373.039 145.505 387.756 164.325 405.402 186.272C418.255 202.266 433.892 219.506 452.426 226.116C472.202 233.169 483.237 223.385 489.011 213.934C489.732 212.756 490.429 211.559 491.126 210.362C495.972 202.039 500.983 193.434 514.062 191.885C515.119 191.758 516.251 191.696 517.427 191.698C534.413 191.73 562.655 205.689 575.54 220.42L576.479 220.044Z" fill="url(#paint13_linear_273_2456)" fill-opacity="0.5"/>
<path d="M576.221 218.714C562.906 201.859 533.661 186.782 516.042 187.69C514.834 187.753 513.674 187.889 512.595 188.097C499.736 190.562 495.539 200.587 491.481 210.283C490.809 211.888 490.114 213.548 489.392 215.138C485.464 223.802 475.701 237.201 454.454 229.61C435.891 222.978 420.621 205.012 408.132 188.31C391.164 165.627 376.379 145.189 362.934 125.832C357.887 118.553 350.261 107.551 339.271 102.207C332.255 98.7936 321.638 97.3897 314.807 104.665C311.88 107.836 309.854 111.952 308.809 116.853C306.967 124.861 307.484 133.906 307.985 142.654L308.081 144.343C308.634 154.215 308.837 164.073 308.684 173.643C308.321 194.107 306.095 210.13 301.679 224.07C297.865 235.934 292.538 246.51 285.773 255.646C277.848 266.236 268.303 275.111 257.274 282.144C233.181 297.789 202.978 305.485 169.932 304.401L170.678 305.756C203.923 306.847 234.298 299.11 258.52 283.382C269.607 276.311 279.201 267.39 287.167 256.745C293.967 247.56 299.323 236.928 303.157 225.001C307.594 210.996 309.831 194.906 310.196 174.365C310.348 164.773 310.144 154.892 309.59 144.998L309.494 143.308C308.997 134.62 308.483 125.636 310.302 117.732C311.321 112.941 313.3 108.915 316.159 105.815C322.674 98.8765 332.661 100.149 339.234 103.346C348.726 107.962 355.3 116.692 361.747 125.992C375.209 145.376 390.012 165.837 406.999 188.545C412.334 195.68 419.533 204.91 427.916 213.018C437.05 221.853 445.801 227.688 454.67 230.856C476.759 238.748 486.816 225.021 490.845 216.137C491.57 214.538 492.266 212.874 492.94 211.265C496.939 201.711 501.075 191.833 513.581 189.435C514.617 189.236 515.73 189.105 516.891 189.045C533.967 188.164 562.27 202.724 575.13 219.004L576.221 218.714Z" fill="url(#paint14_linear_273_2456)" fill-opacity="0.5"/>
<path d="M575.958 217.38C562.574 198.827 533.14 183.069 515.394 184.956C514.211 185.08 513.075 185.287 511.991 185.576C499.598 188.895 496.246 200.23 493.005 211.191C492.401 213.228 491.778 215.335 491.11 217.337C483.011 241.584 462.713 236.43 456.685 234.273C437.382 227.365 421.517 207.325 409.852 190.639C393.639 167.452 378.345 144.745 364.396 123.148C357.892 113.07 350.642 102.759 339.884 97.1426C328.775 91.3418 319.035 93.8703 314.309 98.9494C311.32 102.198 309.359 106.519 308.521 111.703C307.031 120.197 308.214 130.12 309.359 139.716L309.582 141.595C310.932 152.771 311.842 163.827 312.288 174.458C313.211 196.843 311.816 215.667 308.022 232.004C304.898 245.392 300.114 257.457 293.741 268.02C286.458 279.926 277.278 289.928 266.359 297.855C242.834 315.147 212.164 323.228 177.663 321.224L178.42 322.661C213.163 324.679 244.039 316.548 267.712 299.147C278.694 291.176 287.926 281.116 295.25 269.141C301.656 258.524 306.465 246.396 309.605 232.939C313.416 216.532 314.817 197.635 313.891 175.167C313.443 164.509 312.531 153.425 311.178 142.223L310.955 140.345C309.819 130.818 308.644 120.969 310.113 112.598C310.927 107.546 312.836 103.335 315.746 100.167C320.233 95.3436 329.402 92.9005 339.77 98.3148C349.83 103.567 356.804 113.51 363.087 123.246C377.054 144.87 392.366 167.603 408.597 190.817C420.529 207.884 436.803 228.398 456.913 235.595C466.342 238.969 474.444 238.592 480.991 234.473C487.577 230.328 490.98 223.41 492.675 218.335C493.348 216.322 493.973 214.209 494.577 212.166C497.77 201.368 501.073 190.204 513.102 186.981C514.139 186.705 515.225 186.507 516.356 186.388C533.476 184.568 561.843 199.732 574.726 217.591L575.958 217.38Z" fill="url(#paint15_linear_273_2456)" fill-opacity="0.5"/>
<path d="M575.694 216.043C568.748 205.599 557.333 195.796 544.374 189.148C531.414 182.499 519.393 180.28 511.391 183.057C499.404 187.217 496.87 199.868 494.419 212.103C493.924 214.572 493.413 217.126 492.833 219.538C487.683 240.956 471.938 243.602 458.92 238.935C438.783 231.717 422.254 209.244 411.573 192.966C395.808 168.942 380.427 144.548 365.859 120.463C362.947 115.65 359.489 110.085 355.272 104.937C350.56 99.1845 345.728 94.9788 340.5 92.079C328.792 85.5847 318.661 87.9793 313.813 93.2331C304.893 102.899 307.889 120.282 310.787 137.092L311.089 138.848C321.637 200.334 318.57 246.634 301.714 280.392C281.245 321.383 238.849 342.398 185.398 338.046L186.162 339.564C240.022 343.949 282.73 322.798 303.334 281.534C320.267 247.625 323.353 201.148 312.768 139.45L312.466 137.693C309.605 121.096 306.647 103.934 315.334 94.5191C319.92 89.5508 329.42 87.2403 340.308 93.2799C350.946 99.1804 358.059 109.963 364.434 120.502C379.019 144.614 394.417 169.035 410.2 193.087C433.04 227.892 449.081 236.72 459.16 240.333C479.922 247.776 491.032 234.985 494.506 220.532C495.09 218.107 495.603 215.546 496.098 213.069C498.513 201.018 501.01 188.557 512.628 184.525C520.284 181.867 531.818 184.008 544.273 190.397C556.729 196.788 567.684 206.183 574.329 216.177L575.694 216.043Z" fill="url(#paint16_linear_273_2456)" fill-opacity="0.5"/>
<defs>
<linearGradient id="paint0_linear_273_2456" x1="165.575" y1="106.475" x2="308.74" y2="300.38" gradientUnits="userSpaceOnUse">
<stop offset="0.0677083" stop-color="#2CB9E9"/>
<stop offset="0.302083" stop-color="#994FFF"/>
<stop offset="1" stop-color="#E70DD4"/>
</linearGradient>
<linearGradient id="paint1_linear_273_2456" x1="171.602" y1="119.745" x2="317.695" y2="305.002" gradientUnits="userSpaceOnUse">
<stop offset="0.0677083" stop-color="#2CB9E9"/>
<stop offset="0.302083" stop-color="#994FFF"/>
<stop offset="1" stop-color="#E70DD4"/>
</linearGradient>
<linearGradient id="paint2_linear_273_2456" x1="177.621" y1="133.017" x2="325.67" y2="309.63" gradientUnits="userSpaceOnUse">
<stop offset="0.0677083" stop-color="#2CB9E9"/>
<stop offset="0.302083" stop-color="#994FFF"/>
<stop offset="1" stop-color="#E70DD4"/>
</linearGradient>
<linearGradient id="paint3_linear_273_2456" x1="183.642" y1="146.289" x2="332.762" y2="314.339" gradientUnits="userSpaceOnUse">
<stop offset="0.0677083" stop-color="#2CB9E9"/>
<stop offset="0.302083" stop-color="#994FFF"/>
<stop offset="1" stop-color="#E70DD4"/>
</linearGradient>
<linearGradient id="paint4_linear_273_2456" x1="189.665" y1="159.561" x2="339.056" y2="319.187" gradientUnits="userSpaceOnUse">
<stop offset="0.0677083" stop-color="#2CB9E9"/>
<stop offset="0.302083" stop-color="#994FFF"/>
<stop offset="1" stop-color="#E70DD4"/>
</linearGradient>
<linearGradient id="paint5_linear_273_2456" x1="195.682" y1="172.832" x2="344.622" y2="324.216" gradientUnits="userSpaceOnUse">
<stop offset="0.0677083" stop-color="#2CB9E9"/>
<stop offset="0.302083" stop-color="#994FFF"/>
<stop offset="1" stop-color="#E70DD4"/>
</linearGradient>
<linearGradient id="paint6_linear_273_2456" x1="201.702" y1="186.101" x2="349.546" y2="329.457" gradientUnits="userSpaceOnUse">
<stop offset="0.0677083" stop-color="#2CB9E9"/>
<stop offset="0.302083" stop-color="#994FFF"/>
<stop offset="1" stop-color="#E70DD4"/>
</linearGradient>
<linearGradient id="paint7_linear_273_2456" x1="207.715" y1="199.368" x2="353.883" y2="334.93" gradientUnits="userSpaceOnUse">
<stop offset="0.0677083" stop-color="#2CB9E9"/>
<stop offset="0.302083" stop-color="#994FFF"/>
<stop offset="1" stop-color="#E70DD4"/>
</linearGradient>
<linearGradient id="paint8_linear_273_2456" x1="213.727" y1="212.634" x2="357.701" y2="340.652" gradientUnits="userSpaceOnUse">
<stop offset="0.0677083" stop-color="#2CB9E9"/>
<stop offset="0.302083" stop-color="#994FFF"/>
<stop offset="1" stop-color="#E70DD4"/>
</linearGradient>
<linearGradient id="paint9_linear_273_2456" x1="219.736" y1="225.898" x2="361.059" y2="346.635" gradientUnits="userSpaceOnUse">
<stop offset="0.0677083" stop-color="#2CB9E9"/>
<stop offset="0.302083" stop-color="#994FFF"/>
<stop offset="1" stop-color="#E70DD4"/>
</linearGradient>
<linearGradient id="paint10_linear_273_2456" x1="225.76" y1="239.184" x2="364.059" y2="352.952" gradientUnits="userSpaceOnUse">
<stop offset="0.0677083" stop-color="#2CB9E9"/>
<stop offset="0.302083" stop-color="#994FFF"/>
<stop offset="1" stop-color="#E70DD4"/>
</linearGradient>
<linearGradient id="paint11_linear_273_2456" x1="231.8" y1="252.483" x2="366.749" y2="359.584" gradientUnits="userSpaceOnUse">
<stop offset="0.0677083" stop-color="#2CB9E9"/>
<stop offset="0.302083" stop-color="#994FFF"/>
<stop offset="1" stop-color="#E70DD4"/>
</linearGradient>
<linearGradient id="paint12_linear_273_2456" x1="237.848" y1="265.765" x2="369.147" y2="366.446" gradientUnits="userSpaceOnUse">
<stop offset="0.0677083" stop-color="#2CB9E9"/>
<stop offset="0.302083" stop-color="#994FFF"/>
<stop offset="1" stop-color="#E70DD4"/>
</linearGradient>
<linearGradient id="paint13_linear_273_2456" x1="243.914" y1="279.01" x2="371.3" y2="373.506" gradientUnits="userSpaceOnUse">
<stop offset="0.0677083" stop-color="#2CB9E9"/>
<stop offset="0.302083" stop-color="#994FFF"/>
<stop offset="1" stop-color="#E70DD4"/>
</linearGradient>
<linearGradient id="paint14_linear_273_2456" x1="249.986" y1="292.237" x2="373.218" y2="380.788" gradientUnits="userSpaceOnUse">
<stop offset="0.0677083" stop-color="#2CB9E9"/>
<stop offset="0.302083" stop-color="#994FFF"/>
<stop offset="1" stop-color="#E70DD4"/>
</linearGradient>
<linearGradient id="paint15_linear_273_2456" x1="256.07" y1="305.437" x2="374.936" y2="388.276" gradientUnits="userSpaceOnUse">
<stop offset="0.0677083" stop-color="#2CB9E9"/>
<stop offset="0.302083" stop-color="#994FFF"/>
<stop offset="1" stop-color="#E70DD4"/>
</linearGradient>
<linearGradient id="paint16_linear_273_2456" x1="262.166" y1="318.618" x2="376.476" y2="395.973" gradientUnits="userSpaceOnUse">
<stop offset="0.0677083" stop-color="#2CB9E9"/>
<stop offset="0.302083" stop-color="#994FFF"/>
<stop offset="1" stop-color="#E70DD4"/>
</linearGradient>
</defs>
</svg>
