<svg width="20" height="83" viewBox="0 0 20 83" fill="none" xmlns="http://www.w3.org/2000/svg">
<rect x="0.195312" y="0.587158" width="3.49443" height="3.79851" rx="1" fill="#D9D9D9"/>
<rect x="0.195312" y="11.6787" width="3.49443" height="3.79851" rx="1" fill="#D9D9D9"/>
<rect x="0.195312" y="22.77" width="3.49443" height="3.79851" rx="1" fill="#D9D9D9"/>
<rect x="0.195312" y="33.8616" width="3.49443" height="3.79851" rx="1" fill="#D9D9D9"/>
<rect x="0.195312" y="44.9531" width="3.49443" height="3.79851" rx="1" fill="#D9D9D9"/>
<rect x="0.195312" y="56.0444" width="3.49443" height="3.79851" rx="1" fill="#D9D9D9"/>
<rect x="0.195312" y="67.136" width="3.49443" height="3.79851" rx="1" fill="#D9D9D9"/>
<rect x="0.195312" y="78.2273" width="3.49443" height="3.79851" rx="1" fill="#D9D9D9"/>
<rect x="12.1992" y="0.587158" width="3.49443" height="3.79851" rx="1" fill="#D9D9D9"/>
<rect x="12.1992" y="11.6787" width="3.49443" height="3.79851" rx="1" fill="#D9D9D9"/>
<rect x="12.1992" y="22.77" width="3.49443" height="3.79851" rx="1" fill="#D9D9D9"/>
<rect x="12.1992" y="33.8616" width="3.49443" height="3.79851" rx="1" fill="#D9D9D9"/>
<rect x="12.1992" y="44.9531" width="3.49443" height="3.79851" rx="1" fill="#D9D9D9"/>
<rect x="12.1992" y="56.0444" width="3.49443" height="3.79851" rx="1" fill="#D9D9D9"/>
<rect x="12.1992" y="67.136" width="3.49443" height="3.79851" rx="1" fill="#D9D9D9"/>
<rect x="12.1992" y="78.2273" width="3.49443" height="3.79851" rx="1" fill="#D9D9D9"/>
</svg>
