<svg width="14" height="14" viewBox="0 0 14 14" fill="none" xmlns="http://www.w3.org/2000/svg">
<g clip-path="url(#clip0_273_2405)">
<path d="M10.2037 0.166016H4.24163C2.30124 0.166016 0.722656 1.7446 0.722656 3.68499V9.64712C0.722656 11.5874 2.30124 13.166 4.24163 13.166H10.2038C12.1441 13.166 13.7226 11.5874 13.7226 9.64712V3.68499C13.7226 1.7446 12.1441 0.166016 10.2037 0.166016V0.166016ZM12.9605 9.64712C12.9605 11.1672 11.7238 12.4039 10.2037 12.4039H4.24163C2.72147 12.4039 1.48477 11.1672 1.48477 9.64712V3.68499C1.48477 2.16483 2.72147 0.92813 4.24163 0.92813H10.2038C11.7238 0.92813 12.9605 2.16483 12.9605 3.68499V9.64712Z" fill="#1A202C"/>
<path d="M7.22255 3.11133C5.26252 3.11133 3.66797 4.70588 3.66797 6.66591C3.66797 8.62594 5.26252 10.2205 7.22255 10.2205C9.18258 10.2205 10.7771 8.62594 10.7771 6.66591C10.7771 4.70588 9.18258 3.11133 7.22255 3.11133ZM7.22255 9.45838C5.68285 9.45838 4.43008 8.20571 4.43008 6.66591C4.43008 5.12621 5.68285 3.87344 7.22255 3.87344C8.76235 3.87344 10.015 5.12621 10.015 6.66591C10.015 8.20571 8.76235 9.45838 7.22255 9.45838Z" fill="#1A202C"/>
<path d="M10.8628 1.84912C10.2836 1.84912 9.8125 2.32033 9.8125 2.89946C9.8125 3.47868 10.2836 3.94989 10.8628 3.94989C11.4421 3.94989 11.9133 3.47868 11.9133 2.89946C11.9133 2.32024 11.4421 1.84912 10.8628 1.84912ZM10.8628 3.18768C10.7039 3.18768 10.5746 3.05835 10.5746 2.89946C10.5746 2.74047 10.7039 2.61124 10.8628 2.61124C11.0218 2.61124 11.1512 2.74047 11.1512 2.89946C11.1512 3.05835 11.0218 3.18768 10.8628 3.18768Z" fill="#1A202C"/>
</g>
<defs>
<clipPath id="clip0_273_2405">
<rect width="13" height="13" fill="white" transform="translate(0.722656 0.166016)"/>
</clipPath>
</defs>
</svg>
