<svg width="12" height="12" viewBox="0 0 12 12" fill="none" xmlns="http://www.w3.org/2000/svg">
<g clip-path="url(#clip0_273_2419)">
<path d="M11.7197 11.166V11.1656H11.7225V7.13133C11.7225 5.15774 11.2976 3.63745 8.99037 3.63745C7.8812 3.63745 7.13687 4.24612 6.83299 4.82316H6.80091V3.8217H4.61328V11.1656H6.8912V7.52916C6.8912 6.5717 7.0727 5.64587 8.25841 5.64587C9.4267 5.64587 9.44412 6.73853 9.44412 7.59058V11.166H11.7197Z" fill="#1A202C"/>
<path d="M0.902344 3.82227H3.18301V11.1661H0.902344V3.82227Z" fill="#1A202C"/>
<path d="M2.04357 0.166016C1.31436 0.166016 0.722656 0.757724 0.722656 1.48693C0.722656 2.21614 1.31436 2.82022 2.04357 2.82022C2.77278 2.82022 3.36449 2.21614 3.36449 1.48693C3.36403 0.757724 2.77232 0.166016 2.04357 0.166016V0.166016Z" fill="#1A202C"/>
</g>
<defs>
<clipPath id="clip0_273_2419">
<rect width="11" height="11" fill="white" transform="translate(0.722656 0.166016)"/>
</clipPath>
</defs>
</svg>
