<svg width="44" height="82" viewBox="0 0 44 82" fill="none" xmlns="http://www.w3.org/2000/svg">
<rect x="3.74219" y="0.447266" width="3.49443" height="3.79851" rx="1" fill="#D9D9D9"/>
<rect x="3.74219" y="11.5386" width="3.49443" height="3.79851" rx="1" fill="#D9D9D9"/>
<rect x="3.74219" y="22.6301" width="3.49443" height="3.79851" rx="1" fill="#D9D9D9"/>
<rect x="3.74219" y="33.7217" width="3.49443" height="3.79851" rx="1" fill="#D9D9D9"/>
<rect x="3.74219" y="44.813" width="3.49443" height="3.79851" rx="1" fill="#D9D9D9"/>
<rect x="3.74219" y="55.9045" width="3.49443" height="3.79851" rx="1" fill="#D9D9D9"/>
<rect x="3.74219" y="66.9961" width="3.49443" height="3.79851" rx="1" fill="#D9D9D9"/>
<rect x="3.74219" y="78.0874" width="3.49443" height="3.79851" rx="1" fill="#D9D9D9"/>
<rect x="15.7422" y="0.447266" width="3.49443" height="3.79851" rx="1" fill="#D9D9D9"/>
<rect x="15.7422" y="11.5386" width="3.49443" height="3.79851" rx="1" fill="#D9D9D9"/>
<rect x="15.7422" y="22.6301" width="3.49443" height="3.79851" rx="1" fill="#D9D9D9"/>
<rect x="15.7422" y="33.7217" width="3.49443" height="3.79851" rx="1" fill="#D9D9D9"/>
<rect x="15.7422" y="44.813" width="3.49443" height="3.79851" rx="1" fill="#D9D9D9"/>
<rect x="15.7422" y="55.9045" width="3.49443" height="3.79851" rx="1" fill="#D9D9D9"/>
<rect x="15.7422" y="66.9961" width="3.49443" height="3.79851" rx="1" fill="#D9D9D9"/>
<rect x="15.7422" y="78.0874" width="3.49443" height="3.79851" rx="1" fill="#D9D9D9"/>
<rect x="27.7461" y="0.447266" width="3.49443" height="3.79851" rx="1" fill="#D9D9D9"/>
<rect x="27.7461" y="11.5386" width="3.49443" height="3.79851" rx="1" fill="#D9D9D9"/>
<rect x="27.7461" y="22.6301" width="3.49443" height="3.79851" rx="1" fill="#D9D9D9"/>
<rect x="27.7461" y="33.7217" width="3.49443" height="3.79851" rx="1" fill="#D9D9D9"/>
<rect x="27.7461" y="44.813" width="3.49443" height="3.79851" rx="1" fill="#D9D9D9"/>
<rect x="27.7461" y="55.9045" width="3.49443" height="3.79851" rx="1" fill="#D9D9D9"/>
<rect x="27.7461" y="66.9961" width="3.49443" height="3.79851" rx="1" fill="#D9D9D9"/>
<rect x="27.7461" y="78.0874" width="3.49443" height="3.79851" rx="1" fill="#D9D9D9"/>
<rect x="39.75" y="0.447266" width="3.49443" height="3.79851" rx="1" fill="#D9D9D9"/>
<rect x="39.75" y="11.5387" width="3.49443" height="3.79851" rx="1" fill="#D9D9D9"/>
<rect x="39.75" y="22.6301" width="3.49443" height="3.79851" rx="1" fill="#D9D9D9"/>
<rect x="39.75" y="33.7217" width="3.49443" height="3.79851" rx="1" fill="#D9D9D9"/>
<rect x="39.75" y="44.8131" width="3.49443" height="3.79851" rx="1" fill="#D9D9D9"/>
<rect x="39.75" y="55.9045" width="3.49443" height="3.79851" rx="1" fill="#D9D9D9"/>
<rect x="39.75" y="66.9961" width="3.49443" height="3.79851" rx="1" fill="#D9D9D9"/>
<rect x="39.75" y="78.0874" width="3.49443" height="3.79851" rx="1" fill="#D9D9D9"/>
</svg>
