<svg width="37" height="82" viewBox="0 0 37 82" fill="none" xmlns="http://www.w3.org/2000/svg">
<rect x="-3.24219" y="0.239746" width="3.49443" height="3.79851" rx="1" fill="#D9D9D9"/>
<rect x="-3.24219" y="11.3311" width="3.49443" height="3.79851" rx="1" fill="#D9D9D9"/>
<rect x="-3.24219" y="22.4226" width="3.49443" height="3.79851" rx="1" fill="#D9D9D9"/>
<rect x="-3.24219" y="33.5142" width="3.49443" height="3.79851" rx="1" fill="#D9D9D9"/>
<rect x="-3.24219" y="44.6055" width="3.49443" height="3.79851" rx="1" fill="#D9D9D9"/>
<rect x="-3.24219" y="55.697" width="3.49443" height="3.79851" rx="1" fill="#D9D9D9"/>
<rect x="-3.24219" y="66.7886" width="3.49443" height="3.79851" rx="1" fill="#D9D9D9"/>
<rect x="-3.24219" y="77.8799" width="3.49443" height="3.79851" rx="1" fill="#D9D9D9"/>
<rect x="8.76172" y="0.239746" width="3.49443" height="3.79851" rx="1" fill="#D9D9D9"/>
<rect x="8.76172" y="11.3311" width="3.49443" height="3.79851" rx="1" fill="#D9D9D9"/>
<rect x="8.76172" y="22.4226" width="3.49443" height="3.79851" rx="1" fill="#D9D9D9"/>
<rect x="8.76172" y="33.5142" width="3.49443" height="3.79851" rx="1" fill="#D9D9D9"/>
<rect x="8.76172" y="44.6055" width="3.49443" height="3.79851" rx="1" fill="#D9D9D9"/>
<rect x="8.76172" y="55.697" width="3.49443" height="3.79851" rx="1" fill="#D9D9D9"/>
<rect x="8.76172" y="66.7886" width="3.49443" height="3.79851" rx="1" fill="#D9D9D9"/>
<rect x="8.76172" y="77.8799" width="3.49443" height="3.79851" rx="1" fill="#D9D9D9"/>
<rect x="20.7617" y="0.239746" width="3.49443" height="3.79851" rx="1" fill="#D9D9D9"/>
<rect x="20.7617" y="11.3311" width="3.49443" height="3.79851" rx="1" fill="#D9D9D9"/>
<rect x="20.7617" y="22.4226" width="3.49443" height="3.79851" rx="1" fill="#D9D9D9"/>
<rect x="20.7617" y="33.5142" width="3.49443" height="3.79851" rx="1" fill="#D9D9D9"/>
<rect x="20.7617" y="44.6055" width="3.49443" height="3.79851" rx="1" fill="#D9D9D9"/>
<rect x="20.7617" y="55.697" width="3.49443" height="3.79851" rx="1" fill="#D9D9D9"/>
<rect x="20.7617" y="66.7886" width="3.49443" height="3.79851" rx="1" fill="#D9D9D9"/>
<rect x="20.7617" y="77.8799" width="3.49443" height="3.79851" rx="1" fill="#D9D9D9"/>
<rect x="32.7656" y="0.239746" width="3.49443" height="3.79851" rx="1" fill="#D9D9D9"/>
<rect x="32.7656" y="11.3311" width="3.49443" height="3.79851" rx="1" fill="#D9D9D9"/>
<rect x="32.7656" y="22.4226" width="3.49443" height="3.79851" rx="1" fill="#D9D9D9"/>
<rect x="32.7656" y="33.5142" width="3.49443" height="3.79851" rx="1" fill="#D9D9D9"/>
<rect x="32.7656" y="44.6055" width="3.49443" height="3.79851" rx="1" fill="#D9D9D9"/>
<rect x="32.7656" y="55.697" width="3.49443" height="3.79851" rx="1" fill="#D9D9D9"/>
<rect x="32.7656" y="66.7886" width="3.49443" height="3.79851" rx="1" fill="#D9D9D9"/>
<rect x="32.7656" y="77.8799" width="3.49443" height="3.79851" rx="1" fill="#D9D9D9"/>
</svg>
