<svg width="106" height="270" viewBox="0 0 106 270" fill="none" xmlns="http://www.w3.org/2000/svg">
<rect x="0.867188" y="188.185" width="3.49443" height="3.79851" rx="1" fill="#D9D9D9"/>
<rect x="0.867188" y="199.276" width="3.49443" height="3.79851" rx="1" fill="#D9D9D9"/>
<rect x="0.867188" y="210.368" width="3.49443" height="3.79851" rx="1" fill="#D9D9D9"/>
<rect x="0.867188" y="221.459" width="3.49443" height="3.79851" rx="1" fill="#D9D9D9"/>
<rect x="0.867188" y="232.551" width="3.49443" height="3.79851" rx="1" fill="#D9D9D9"/>
<rect x="0.867188" y="243.642" width="3.49443" height="3.79851" rx="1" fill="#D9D9D9"/>
<rect x="0.867188" y="254.734" width="3.49443" height="3.79851" rx="1" fill="#D9D9D9"/>
<rect x="0.867188" y="265.825" width="3.49443" height="3.79851" rx="1" fill="#D9D9D9"/>
<rect x="12.8672" y="188.185" width="3.49443" height="3.79851" rx="1" fill="#D9D9D9"/>
<rect x="12.8672" y="199.276" width="3.49443" height="3.79851" rx="1" fill="#D9D9D9"/>
<rect x="12.8672" y="210.368" width="3.49443" height="3.79851" rx="1" fill="#D9D9D9"/>
<rect x="12.8672" y="221.459" width="3.49443" height="3.79851" rx="1" fill="#D9D9D9"/>
<rect x="12.8672" y="232.551" width="3.49443" height="3.79851" rx="1" fill="#D9D9D9"/>
<rect x="12.8672" y="243.642" width="3.49443" height="3.79851" rx="1" fill="#D9D9D9"/>
<rect x="12.8672" y="254.734" width="3.49443" height="3.79851" rx="1" fill="#D9D9D9"/>
<rect x="12.8672" y="265.825" width="3.49443" height="3.79851" rx="1" fill="#D9D9D9"/>
<rect x="24.8711" y="188.185" width="3.49443" height="3.79851" rx="1" fill="#D9D9D9"/>
<rect x="24.8711" y="199.276" width="3.49443" height="3.79851" rx="1" fill="#D9D9D9"/>
<rect x="24.8711" y="210.368" width="3.49443" height="3.79851" rx="1" fill="#D9D9D9"/>
<rect x="24.8711" y="221.459" width="3.49443" height="3.79851" rx="1" fill="#D9D9D9"/>
<rect x="24.8711" y="232.551" width="3.49443" height="3.79851" rx="1" fill="#D9D9D9"/>
<rect x="24.8711" y="243.642" width="3.49443" height="3.79851" rx="1" fill="#D9D9D9"/>
<rect x="24.8711" y="254.734" width="3.49443" height="3.79851" rx="1" fill="#D9D9D9"/>
<rect x="24.8711" y="265.825" width="3.49443" height="3.79851" rx="1" fill="#D9D9D9"/>
<path fill-rule="evenodd" clip-rule="evenodd" d="M7.8285 1.42227C35.9963 4.60019 49.6879 34.0418 66.9945 56.4918C83.7101 78.1755 107.904 98.4883 103.485 125.508C98.8753 153.694 72.4233 172.031 46.2355 183.428C21.451 194.214 -6.19871 195.081 -30.8372 183.965C-56.3122 172.472 -76.5267 151.562 -84.054 124.647C-92.0585 96.026 -88.6019 64.7663 -70.8369 40.9415C-52.3818 16.1912 -22.8503 -2.03895 7.8285 1.42227Z" stroke="url(#paint0_linear_3659_4234)" stroke-width="2"/>
<defs>
<linearGradient id="paint0_linear_3659_4234" x1="150.138" y1="-85.5944" x2="-52.3175" y2="130.517" gradientUnits="userSpaceOnUse">
<stop stop-color="#FBC524"/>
<stop offset="0.52" stop-color="#E939D9"/>
<stop offset="1" stop-color="#2ABAE9"/>
</linearGradient>
</defs>
</svg>
