<svg width="38" height="38" viewBox="0 0 38 38" fill="none" xmlns="http://www.w3.org/2000/svg">
<path fill-rule="evenodd" clip-rule="evenodd" d="M17.0179 0.257989C16.9022 0.398488 16.6862 0.812445 16.5376 1.17759C16.3219 1.70843 16.0419 1.93327 15.1406 2.2992C14.0515 2.74134 13.9831 2.7457 13.1079 2.43176L12.2023 2.10671L10.9968 3.2946C10.2781 4.00285 9.82808 4.60276 9.88257 4.78017C9.93268 4.94388 10.0852 5.35407 10.2216 5.69182C10.4384 6.22902 10.4105 6.44731 9.99969 7.43656C9.59541 8.40973 9.40967 8.62048 8.66733 8.94832L7.80467 9.32893L7.86234 11.0731L7.91981 12.8172L8.73732 13.1861C9.40788 13.4887 9.6314 13.7394 9.98021 14.5792C10.4927 15.8129 10.4959 15.8893 10.0683 16.7839L9.73103 17.4898L10.9073 18.6759C12.1452 19.9243 12.4648 20.041 13.3688 19.5745C13.8763 19.3125 14.0288 19.3288 15.0828 19.7563C16.0707 20.1569 16.3002 20.3512 16.6536 21.0856L17.0674 21.9457H18.7577H20.4481L20.8619 21.0856C21.2153 20.3512 21.4447 20.1569 22.4327 19.7563C23.4867 19.3288 23.6392 19.3125 24.1467 19.5745C25.0507 20.041 25.3703 19.9243 26.6082 18.6759L27.7844 17.4898L27.4472 16.7839C27.0196 15.8893 27.0228 15.8129 27.5353 14.5792C27.8841 13.7394 28.1076 13.4887 28.7781 13.1861L29.5957 12.8172L29.6531 11.0731L29.7108 9.32893L28.8481 8.94832C28.1058 8.62048 27.9201 8.40973 27.5158 7.43656C27.1049 6.44731 27.0771 6.22902 27.2938 5.69182C27.4303 5.35407 27.5828 4.94388 27.6329 4.78017C27.6874 4.60276 27.2374 4.00285 26.5187 3.2946L25.3132 2.10671L24.4076 2.43176C23.534 2.74531 23.4628 2.74094 22.3935 2.30674C21.4539 1.92533 21.221 1.72391 20.8665 0.986681L20.4481 0.116695L18.8381 0.0595431C17.707 0.0194571 17.1655 0.0783955 17.0179 0.257989ZM20.1293 2.10115C20.3721 2.64886 20.6545 2.99416 20.8595 2.99416C21.0432 2.99416 21.7241 3.23169 22.3726 3.52202C23.527 4.03917 23.566 4.04294 24.266 3.70975L24.9809 3.36961L25.6477 4.01456C26.3962 4.73869 26.4413 4.95202 26.0182 5.76862C25.7403 6.30482 25.7588 6.41853 26.3162 7.59432C26.6432 8.28412 26.9108 8.96062 26.9108 9.09794C26.911 9.23527 27.269 9.49047 27.7065 9.6653C28.494 9.97964 28.5019 9.99333 28.5019 11.0312C28.5019 12.0691 28.494 12.0828 27.7065 12.3971C27.269 12.5719 26.911 12.8271 26.9108 12.9645C26.9108 13.1018 26.6432 13.7783 26.3162 14.4681C25.7588 15.6439 25.7403 15.7576 26.0182 16.2938C26.4407 17.1094 26.396 17.3239 25.6538 18.0417L24.9932 18.6807L24.2336 18.364C23.5044 18.0599 23.429 18.0669 22.3587 18.5372C21.7454 18.8067 21.0506 19.0845 20.8146 19.1544C20.5598 19.23 20.2579 19.6007 20.0706 20.068C19.761 20.8398 19.7367 20.8543 18.7434 20.8543C17.7483 20.8543 17.7262 20.841 17.4208 20.0648C17.2378 19.6003 16.9376 19.2244 16.691 19.1514C16.4605 19.0831 15.77 18.8067 15.1568 18.5372C14.0865 18.0669 14.0111 18.0599 13.2819 18.364L12.5222 18.6807L11.8616 18.0417C11.1193 17.3237 11.0747 17.1094 11.4977 16.2932C11.7727 15.7625 11.7592 15.651 11.3142 14.7652C11.0503 14.2395 10.7729 13.5638 10.6977 13.2635C10.5985 12.8664 10.323 12.6124 9.68788 12.332C8.83815 11.9569 8.81468 11.9218 8.81468 11.0312C8.81468 10.1372 8.83556 10.1066 9.70956 9.72086C10.2017 9.50357 10.6044 9.2184 10.6046 9.08703C10.6046 8.95566 10.8723 8.28412 11.1992 7.59432C11.7566 6.41853 11.7751 6.30482 11.4973 5.76862C11.0741 4.95202 11.1193 4.73869 11.8678 4.01456L12.5346 3.36961L13.2495 3.70975C13.9495 4.04294 13.9884 4.03917 15.1428 3.52202C15.7913 3.23169 16.4722 2.99416 16.656 2.99416C16.861 2.99416 17.1434 2.64886 17.3862 2.10115C17.7777 1.21787 17.7927 1.20815 18.7577 1.20815C19.7228 1.20815 19.7377 1.21787 20.1293 2.10115ZM16.6405 4.79227C15.1466 5.26477 13.7216 6.47608 12.8838 7.98546C12.3411 8.9632 12.2947 9.20292 12.2949 11.0312C12.2949 12.7966 12.3534 13.126 12.8239 14.0158C13.4702 15.2377 14.8899 16.5782 16.1375 17.1439C17.449 17.7389 20.0664 17.7389 21.3779 17.1439C22.6256 16.5782 24.0453 15.2377 24.6916 14.0158C25.1621 13.126 25.2205 12.7966 25.2205 11.0312C25.2207 9.20292 25.1744 8.9632 24.6317 7.98546C23.7712 6.4352 22.3742 5.26576 20.8056 4.78215C19.2097 4.2904 18.2196 4.29278 16.6405 4.79227ZM21.0918 6.04168C22.1597 6.59495 23.1287 7.56475 23.6799 8.63199C24.1007 9.44701 24.1998 9.91018 24.193 11.0312C24.1831 12.6583 23.8358 13.5695 22.7801 14.738C20.1529 17.6462 15.2023 16.7825 13.6355 13.1427C13.2403 12.2247 13.2045 10.0501 13.5695 9.14597C14.167 7.66517 15.4648 6.38599 16.9179 5.84502C17.8837 5.48544 20.2313 5.59617 21.0918 6.04168ZM18.4024 6.80193C18.2697 6.93409 18.1578 7.13631 18.1534 7.25081C18.1492 7.36532 17.8589 7.63937 17.5083 7.85944C15.6396 9.03265 16.3559 11.2203 18.7327 11.5995C20.1545 11.8264 20.5775 12.7583 19.4939 13.2764C18.7015 13.6554 17.8223 13.4074 17.4566 12.7015C17.132 12.0754 16.4893 11.9268 16.2946 12.4328C16.1071 12.9206 16.7236 13.8934 17.4347 14.2317C17.7909 14.4014 18.1673 14.7328 18.2709 14.9686C18.5159 15.5252 19.0035 15.5163 19.2523 14.9505C19.3603 14.705 19.5496 14.504 19.6729 14.504C20.0549 14.504 20.9651 13.6838 21.1649 13.1595C21.4145 12.5045 21.0536 11.4057 20.4819 11.0802C20.2444 10.9451 19.5134 10.6555 18.8572 10.4367C17.4631 9.9721 17.1776 9.40811 18.048 8.83897C18.6897 8.41946 19.4378 8.58754 19.8718 9.24836C20.2317 9.79647 20.8953 9.90363 21.0727 9.44205C21.225 9.04635 20.6495 8.19383 19.966 7.80229C19.6649 7.62984 19.337 7.30915 19.2374 7.08987C19.0109 6.59177 18.715 6.48977 18.4024 6.80193ZM1.49461 7.16667C0.38158 7.84377 0.317746 8.22498 0.133402 15.2978C0.0409315 18.845 -0.0171359 22.0886 0.00453994 22.5059C0.0898513 24.1643 0.394308 24.6049 3.88392 28.1205C6.86962 31.1286 7.24785 31.5826 7.18979 32.0894C7.12913 32.6199 7.05576 32.6661 6.18574 32.7221C4.86669 32.8066 4.43974 33.3785 4.43974 35.0606C4.43974 36.4975 4.71655 37.256 5.31512 37.4594C5.54461 37.5372 8.23798 37.5759 11.3004 37.5451C18.0436 37.4772 17.7634 37.5832 17.7634 35.0987C17.7634 33.705 17.7109 33.4843 17.2752 33.0497C16.9708 32.7457 16.5595 32.5625 16.1815 32.5625H15.576L15.574 29.0401C15.5722 25.7701 15.539 25.4467 15.1088 24.5255C14.8167 23.9 14.2846 23.2437 13.6691 22.7496C13.132 22.3186 11.8871 21.1914 10.9027 20.2444C9.91836 19.2976 8.91749 18.4225 8.67866 18.2995C7.98742 17.9439 7.13669 18.0379 6.37446 18.5541L5.6687 19.0321L5.5808 14.2379C5.48336 8.91855 5.36524 8.28451 4.29636 7.34805C3.48878 6.64059 2.46783 6.57451 1.49461 7.16667ZM33.2629 7.30102C32.0906 8.28531 32.0027 8.7338 31.9211 14.1389L31.8474 19.0325L31.1412 18.5543C30.3788 18.0379 29.5281 17.9439 28.8368 18.2995C28.598 18.4225 27.5971 19.2976 26.6127 20.2444C25.6284 21.1914 24.3835 22.3186 23.8464 22.7496C23.2309 23.2437 22.6988 23.9 22.4066 24.5255C21.9765 25.4467 21.9433 25.7701 21.9415 29.0401L21.9395 32.5625H21.334C20.9559 32.5625 20.5447 32.7457 20.2402 33.0497C19.8045 33.4843 19.752 33.705 19.752 35.0987C19.752 37.5832 19.4718 37.4772 26.215 37.5451C29.2775 37.5759 31.9709 37.5372 32.2003 37.4594C32.7989 37.256 33.0757 36.4975 33.0757 35.0606C33.0757 33.3785 32.6488 32.8066 31.3297 32.7221C30.4597 32.6661 30.3863 32.6199 30.3257 32.0894C30.2676 31.5826 30.6458 31.1286 33.6315 28.1205C37.0671 24.6592 37.39 24.2014 37.5012 22.6347C37.528 22.2559 37.4747 18.9988 37.3825 15.397C37.1987 8.21585 37.1377 7.84595 36.0209 7.16667C35.0789 6.59336 34.0456 6.64377 33.2629 7.30102ZM3.3997 8.06464C4.28423 8.68299 4.33573 9.0015 4.44033 14.504C4.52843 19.1389 4.58431 19.8434 4.91064 20.4421C5.45134 21.4339 9.00559 25.0216 9.44746 25.0216C10.3395 25.0216 10.0452 24.3909 8.34298 22.6549C6.9776 21.2627 6.62721 20.7868 6.62721 20.3242C6.62721 19.5735 6.95016 19.2667 7.74004 19.2667C8.22705 19.2667 8.52733 19.4409 9.02329 20.0109C9.37925 20.4203 10.5742 21.5419 11.6787 22.5037C14.4528 24.9192 14.4667 24.9514 14.551 29.108L14.6198 32.4998L11.6071 32.6354C9.94998 32.71 8.50963 32.7189 8.40622 32.6552C8.30281 32.5913 8.2181 32.1639 8.2181 31.7051C8.2181 30.8912 8.14074 30.7946 5.01465 27.6982C2.89697 25.6009 1.67875 24.2354 1.42023 23.6694C1.0408 22.8385 1.03583 22.6051 1.25418 15.7385C1.40571 10.9735 1.55446 8.57325 1.70957 8.38652C1.91003 8.1456 2.53723 7.80745 2.85422 7.76935C2.91209 7.7626 3.15748 7.89536 3.3997 8.06464ZM35.7017 8.32341C36 8.61056 36.067 9.50099 36.2603 15.7385C36.4729 22.596 36.4673 22.8552 36.0921 23.6763C35.8375 24.2336 34.603 25.6162 32.5008 27.6982C29.3747 30.7946 29.2974 30.8912 29.2974 31.7051C29.2974 32.1639 29.2127 32.5913 29.1092 32.6552C29.0058 32.7189 27.574 32.7104 25.9275 32.6364L22.9338 32.5014V29.544C22.9338 25.6322 23.1011 25.0129 24.5016 23.7408C25.108 23.1902 26.4183 21.9582 27.4134 21.0031C29.2423 19.2478 29.6788 19.0315 30.5037 19.4721C30.7566 19.6072 30.8883 19.8876 30.8883 20.2915C30.8883 20.7951 30.58 21.2198 29.1725 22.6549C27.4702 24.3909 27.1759 25.0216 28.068 25.0216C28.5099 25.0216 32.0641 21.4339 32.6048 20.4421C32.9312 19.8434 32.987 19.1389 33.0751 14.504C33.1797 9.00229 33.2314 8.68299 34.1152 8.06523C34.6008 7.72569 35.1789 7.81976 35.7017 8.32341ZM16.6484 34.0672C16.7148 34.2398 16.7691 34.7724 16.7691 35.2509C16.7691 35.9125 16.6757 36.1705 16.3782 36.3294C16.1258 36.4642 14.169 36.5193 10.8598 36.4852L5.73234 36.4322L5.67129 35.3644C5.63768 34.7772 5.65736 34.1743 5.71484 34.0249C5.79975 33.8042 6.82488 33.7532 11.1736 33.7532C15.8725 33.7532 16.5424 33.7917 16.6484 34.0672ZM31.7831 35.1423V36.4322L26.6557 36.4852C23.3465 36.5193 21.3897 36.4642 21.1373 36.3294C20.8398 36.1705 20.7463 35.9125 20.7463 35.2509C20.7463 33.6357 20.3389 33.7405 26.3866 33.7996L31.7831 33.8524V35.1423ZM14.8465 34.8601C14.7803 35.0322 14.8726 35.3193 15.0516 35.4979C15.3445 35.7901 15.4077 35.792 15.6827 35.5178C15.8556 35.3451 15.9327 35.0683 15.8603 34.88C15.6985 34.4589 15.006 34.4454 14.8465 34.8601ZM21.6551 34.88C21.5828 35.0683 21.6599 35.3451 21.8327 35.5178C22.1077 35.792 22.171 35.7901 22.4639 35.4979C22.6429 35.3193 22.7352 35.0322 22.6689 34.8601C22.5094 34.4454 21.817 34.4589 21.6551 34.88Z" fill="url(#paint0_linear_273_3768)"/>
<defs>
<linearGradient id="paint0_linear_273_3768" x1="6.478e-08" y1="7.46671" x2="37.3708" y2="7.97983" gradientUnits="userSpaceOnUse">
<stop stop-color="#994FFF"/>
<stop offset="1" stop-color="#4AB6FE"/>
</linearGradient>
</defs>
</svg>
