<svg width="14" height="11" viewBox="0 0 14 11" fill="none" xmlns="http://www.w3.org/2000/svg">
<path d="M13.7227 1.6352C13.2392 1.84727 12.7241 1.98783 12.187 2.05608C12.7395 1.7262 13.1612 1.20783 13.3595 0.583016C12.8443 0.890141 12.2756 1.10708 11.6695 1.22814C11.1803 0.707328 10.4832 0.384766 9.72272 0.384766C8.24722 0.384766 7.05934 1.58239 7.05934 3.05058C7.05934 3.26183 7.07722 3.46495 7.12109 3.65833C4.90541 3.55027 2.94484 2.48833 1.62778 0.870641C1.39784 1.26958 1.26297 1.7262 1.26297 2.21777C1.26297 3.14077 1.73828 3.95895 2.44678 4.43264C2.01859 4.42452 1.59853 4.3002 1.24266 4.10439C1.24266 4.11252 1.24266 4.12308 1.24266 4.13364C1.24266 5.42877 2.16647 6.50452 3.37791 6.75233C3.16097 6.81164 2.92453 6.84008 2.67916 6.84008C2.50853 6.84008 2.33628 6.83033 2.17459 6.79458C2.51991 7.85002 3.49978 8.62595 4.66491 8.65114C3.75816 9.36045 2.60684 9.78783 1.36047 9.78783C1.14191 9.78783 0.932281 9.77808 0.722656 9.75127C1.90322 10.5126 3.30234 10.9473 4.81116 10.9473C9.71541 10.9473 12.3967 6.88477 12.3967 3.36339C12.3967 3.24558 12.3926 3.13183 12.3869 3.01889C12.9158 2.64352 13.3603 2.1747 13.7227 1.6352Z" fill="#1A202C"/>
</svg>
