<svg width="57" height="131" viewBox="0 0 57 131" fill="none" xmlns="http://www.w3.org/2000/svg">
<path fill-rule="evenodd" clip-rule="evenodd" d="M-4.53433 10.0092C13.063 11.9945 21.6166 30.3876 32.4285 44.4129C42.8713 57.9593 57.9857 70.6494 55.2252 87.5294C52.3455 105.138 35.82 116.594 19.4597 123.714C3.97605 130.452 -13.2976 130.994 -28.69 124.049C-44.605 116.869 -57.2337 103.806 -61.9362 86.9913C-66.9368 69.1111 -64.7775 49.5822 -53.6791 34.6981C-42.1496 19.2358 -23.7004 7.84683 -4.53433 10.0092Z" stroke="url(#paint0_linear_3659_4233)" stroke-width="2"/>
<rect x="4.05078" y="-3.34497" width="3.49443" height="3.79851" rx="1" fill="#D9D9D9"/>
<rect x="4.05078" y="7.74658" width="3.49443" height="3.79851" rx="1" fill="#D9D9D9"/>
<rect x="4.05078" y="18.838" width="3.49443" height="3.79851" rx="1" fill="#D9D9D9"/>
<rect x="4.05078" y="29.9294" width="3.49443" height="3.79851" rx="1" fill="#D9D9D9"/>
<rect x="4.05078" y="41.021" width="3.49443" height="3.79851" rx="1" fill="#D9D9D9"/>
<rect x="4.05078" y="52.1123" width="3.49443" height="3.79851" rx="1" fill="#D9D9D9"/>
<rect x="16.0547" y="-3.34497" width="3.49443" height="3.79851" rx="1" fill="#D9D9D9"/>
<rect x="16.0547" y="7.74658" width="3.49443" height="3.79851" rx="1" fill="#D9D9D9"/>
<rect x="16.0547" y="18.838" width="3.49443" height="3.79851" rx="1" fill="#D9D9D9"/>
<rect x="16.0547" y="29.9294" width="3.49443" height="3.79851" rx="1" fill="#D9D9D9"/>
<rect x="16.0547" y="41.021" width="3.49443" height="3.79851" rx="1" fill="#D9D9D9"/>
<rect x="16.0547" y="52.1123" width="3.49443" height="3.79851" rx="1" fill="#D9D9D9"/>
<rect x="28.0547" y="-3.34497" width="3.49443" height="3.79851" rx="1" fill="#D9D9D9"/>
<rect x="28.0547" y="7.74658" width="3.49443" height="3.79851" rx="1" fill="#D9D9D9"/>
<rect x="28.0547" y="18.838" width="3.49443" height="3.79851" rx="1" fill="#D9D9D9"/>
<rect x="28.0547" y="29.9294" width="3.49443" height="3.79851" rx="1" fill="#D9D9D9"/>
<rect x="28.0547" y="41.021" width="3.49443" height="3.79851" rx="1" fill="#D9D9D9"/>
<rect x="28.0547" y="52.1123" width="3.49443" height="3.79851" rx="1" fill="#D9D9D9"/>
<rect x="40.0586" y="-3.34497" width="3.49443" height="3.79851" rx="1" fill="#D9D9D9"/>
<rect x="40.0586" y="7.74658" width="3.49443" height="3.79851" rx="1" fill="#D9D9D9"/>
<rect x="40.0586" y="18.838" width="3.49443" height="3.79851" rx="1" fill="#D9D9D9"/>
<rect x="40.0586" y="29.9294" width="3.49443" height="3.79851" rx="1" fill="#D9D9D9"/>
<rect x="40.0586" y="41.021" width="3.49443" height="3.79851" rx="1" fill="#D9D9D9"/>
<rect x="40.0586" y="52.1123" width="3.49443" height="3.79851" rx="1" fill="#D9D9D9"/>
<rect x="52.0625" y="-3.34497" width="3.49443" height="3.79851" rx="1" fill="#D9D9D9"/>
<rect x="52.0625" y="7.74658" width="3.49443" height="3.79851" rx="1" fill="#D9D9D9"/>
<rect x="52.0625" y="18.838" width="3.49443" height="3.79851" rx="1" fill="#D9D9D9"/>
<rect x="52.0625" y="29.9294" width="3.49443" height="3.79851" rx="1" fill="#D9D9D9"/>
<rect x="52.0625" y="41.021" width="3.49443" height="3.79851" rx="1" fill="#D9D9D9"/>
<rect x="52.0625" y="52.1123" width="3.49443" height="3.79851" rx="1" fill="#D9D9D9"/>
<defs>
<linearGradient id="paint0_linear_3659_4233" x1="84.3708" y1="-44.3529" x2="-42.1094" y2="90.6588" gradientUnits="userSpaceOnUse">
<stop stop-color="#FBC524"/>
<stop offset="0.52" stop-color="#E939D9"/>
<stop offset="1" stop-color="#2ABAE9"/>
</linearGradient>
</defs>
</svg>
